# MagicaVoxel @ Ephtracy

# group
o 

# material
mtllib roady_cross_assets-20.mtl
usemtl palette

# normals
vn -1 0 0
vn 1 0 0
vn 0 0 1
vn 0 0 -1
vn 0 -1 0
vn 0 1 0

# texcoords
vt 0.533203 0.5
vt 0.970703 0.5
vt 0.986328 0.5

# verts
v -0.8 -0.8 0.7
v -0.8 -0.8 -0.7
v -0.8 -0.7 0.7
v -0.8 -0.7 -0.7
v -0.8 -0.6 0.5
v -0.8 -0.6 0.3
v -0.8 -0.6 -0.3
v -0.8 -0.6 -0.5
v -0.8 -0.5 0.7
v -0.8 -0.5 0.5
v -0.8 -0.5 0.3
v -0.8 -0.5 -0.3
v -0.8 -0.5 -0.5
v -0.8 -0.5 -0.7
v -0.8 -0.4 0.5
v -0.8 -0.4 0.3
v -0.8 -0.4 -0.3
v -0.8 -0.4 -0.5
v -0.6 -0.7 0.7
v -0.6 -0.7 -0.7
v -0.6 -0.6 0.5
v -0.6 -0.6 0.3
v -0.6 -0.6 -0.3
v -0.6 -0.6 -0.5
v -0.6 -0.5 0.7
v -0.6 -0.5 0.5
v -0.6 -0.5 0.3
v -0.6 -0.5 -0.3
v -0.6 -0.5 -0.5
v -0.6 -0.5 -0.7
v 0.8 -0.8 0.7
v 0.8 -0.8 -0.7
v 0.8 -0.7 0.7
v 0.8 -0.7 -0.7
v 0.8 -0.6 0.5
v 0.8 -0.6 0.3
v 0.8 -0.6 -0.3
v 0.8 -0.6 -0.5
v 0.8 -0.4 0.5
v 0.8 -0.4 0.3
v 0.8 -0.4 -0.3
v 0.8 -0.4 -0.5
v -0.8 -0.8 0.7
v -0.8 -0.7 0.7
v -0.8 -0.5 0.7
v -0.6 -0.7 0.7
v -0.6 -0.5 0.7
v 0.8 -0.8 0.7
v 0.8 -0.7 0.7
v -0.8 -0.5 0.5
v -0.8 -0.4 0.5
v -0.6 -0.6 0.5
v -0.6 -0.5 0.5
v 0.8 -0.6 0.5
v 0.8 -0.4 0.5
v -0.8 -0.5 -0.3
v -0.8 -0.4 -0.3
v -0.6 -0.6 -0.3
v -0.6 -0.5 -0.3
v 0.8 -0.6 -0.3
v 0.8 -0.4 -0.3
v -0.8 -0.5 0.3
v -0.8 -0.4 0.3
v -0.6 -0.6 0.3
v -0.6 -0.5 0.3
v 0.8 -0.6 0.3
v 0.8 -0.4 0.3
v -0.8 -0.5 -0.5
v -0.8 -0.4 -0.5
v -0.6 -0.6 -0.5
v -0.6 -0.5 -0.5
v 0.8 -0.6 -0.5
v 0.8 -0.4 -0.5
v -0.8 -0.8 -0.7
v -0.8 -0.7 -0.7
v -0.8 -0.5 -0.7
v -0.6 -0.7 -0.7
v -0.6 -0.5 -0.7
v 0.8 -0.8 -0.7
v 0.8 -0.7 -0.7
v -0.8 -0.8 0.7
v 0.8 -0.8 0.7
v -0.8 -0.8 -0.7
v 0.8 -0.8 -0.7
v -0.6 -0.6 0.5
v 0.8 -0.6 0.5
v -0.6 -0.6 0.3
v 0.8 -0.6 0.3
v -0.6 -0.6 -0.3
v 0.8 -0.6 -0.3
v -0.6 -0.6 -0.5
v 0.8 -0.6 -0.5
v -0.6 -0.7 0.7
v 0.8 -0.7 0.7
v -0.6 -0.7 -0.7
v 0.8 -0.7 -0.7
v -0.8 -0.5 0.7
v -0.6 -0.5 0.7
v -0.8 -0.5 0.5
v -0.6 -0.5 0.5
v -0.8 -0.5 0.3
v -0.6 -0.5 0.3
v -0.8 -0.5 -0.3
v -0.6 -0.5 -0.3
v -0.8 -0.5 -0.5
v -0.6 -0.5 -0.5
v -0.8 -0.5 -0.7
v -0.6 -0.5 -0.7
v -0.8 -0.4 0.5
v 0.8 -0.4 0.5
v -0.8 -0.4 0.3
v 0.8 -0.4 0.3
v -0.8 -0.4 -0.3
v 0.8 -0.4 -0.3
v -0.8 -0.4 -0.5
v 0.8 -0.4 -0.5

# faces
f 3/3/1 2/3/1 1/3/1
f 4/3/1 2/3/1 3/3/1
f 5/1/1 4/1/1 3/1/1
f 6/1/1 4/1/1 5/1/1
f 7/1/1 4/1/1 6/1/1
f 8/1/1 4/1/1 7/1/1
f 9/1/1 5/1/1 3/1/1
f 10/2/1 6/2/1 5/2/1
f 10/1/1 5/1/1 9/1/1
f 11/1/1 7/1/1 6/1/1
f 11/2/1 6/2/1 10/2/1
f 12/2/1 8/2/1 7/2/1
f 12/1/1 7/1/1 11/1/1
f 13/1/1 4/1/1 8/1/1
f 13/2/1 8/2/1 12/2/1
f 14/1/1 4/1/1 13/1/1
f 15/2/1 11/2/1 10/2/1
f 16/2/1 11/2/1 15/2/1
f 17/2/1 13/2/1 12/2/1
f 18/2/1 13/2/1 17/2/1
f 19/1/2 20/1/2 21/1/2
f 21/1/2 20/1/2 22/1/2
f 22/1/2 20/1/2 23/1/2
f 23/1/2 20/1/2 24/1/2
f 19/1/2 21/1/2 25/1/2
f 25/1/2 21/1/2 26/1/2
f 22/1/2 23/1/2 27/1/2
f 27/1/2 23/1/2 28/1/2
f 24/1/2 20/1/2 29/1/2
f 29/1/2 20/1/2 30/1/2
f 31/3/2 32/3/2 33/3/2
f 33/3/2 32/3/2 34/3/2
f 35/2/2 36/2/2 39/2/2
f 39/2/2 36/2/2 40/2/2
f 37/2/2 38/2/2 41/2/2
f 41/2/2 38/2/2 42/2/2
f 46/3/3 44/3/3 43/3/3
f 46/1/3 45/1/3 44/1/3
f 47/1/3 45/1/3 46/1/3
f 48/3/3 46/3/3 43/3/3
f 49/3/3 46/3/3 48/3/3
f 53/2/3 51/2/3 50/2/3
f 54/2/3 53/2/3 52/2/3
f 55/2/3 51/2/3 53/2/3
f 55/2/3 53/2/3 54/2/3
f 59/2/3 57/2/3 56/2/3
f 60/2/3 59/2/3 58/2/3
f 61/2/3 57/2/3 59/2/3
f 61/2/3 59/2/3 60/2/3
f 62/2/4 63/2/4 65/2/4
f 64/2/4 65/2/4 66/2/4
f 65/2/4 63/2/4 67/2/4
f 66/2/4 65/2/4 67/2/4
f 68/2/4 69/2/4 71/2/4
f 70/2/4 71/2/4 72/2/4
f 71/2/4 69/2/4 73/2/4
f 72/2/4 71/2/4 73/2/4
f 74/3/4 75/3/4 77/3/4
f 75/1/4 76/1/4 77/1/4
f 77/1/4 76/1/4 78/1/4
f 74/3/4 77/3/4 79/3/4
f 79/3/4 77/3/4 80/3/4
f 83/3/5 82/3/5 81/3/5
f 84/3/5 82/3/5 83/3/5
f 87/2/5 86/2/5 85/2/5
f 88/2/5 86/2/5 87/2/5
f 91/2/5 90/2/5 89/2/5
f 92/2/5 90/2/5 91/2/5
f 93/3/6 94/3/6 95/3/6
f 95/3/6 94/3/6 96/3/6
f 97/1/6 98/1/6 99/1/6
f 99/1/6 98/1/6 100/1/6
f 101/1/6 102/1/6 103/1/6
f 103/1/6 102/1/6 104/1/6
f 105/1/6 106/1/6 107/1/6
f 107/1/6 106/1/6 108/1/6
f 109/2/6 110/2/6 111/2/6
f 111/2/6 110/2/6 112/2/6
f 113/2/6 114/2/6 115/2/6
f 115/2/6 114/2/6 116/2/6
