# MagicaVoxel @ Ephtracy

# group
o 

# material
mtllib roady_cross_assets-5.mtl
usemtl palette

# normals
vn -1 0 0
vn 1 0 0
vn 0 0 1
vn 0 0 -1
vn 0 -1 0
vn 0 1 0

# texcoords
vt 0.189453 0.5
vt 0.236328 0.5
vt 0.958984 0.5
vt 0.986328 0.5
vt 0.994141 0.5

# verts
v -1.6 -0.6 0.7
v -1.6 -0.6 -0.7
v -1.6 -0.4 0.7
v -1.6 -0.4 -0.7
v -1.6 -0.2 0.7
v -1.6 -0.2 -0.7
v -1.6 0 0.3
v -1.6 0 -0.3
v -1.6 0.2 0.7
v -1.6 0.2 0.3
v -1.6 0.2 -0.3
v -1.6 0.2 -0.7
v -1.2 -0.8 0.7
v -1.2 -0.8 0.6
v -1.2 -0.8 -0.6
v -1.2 -0.8 -0.7
v -1.2 -0.6 0.7
v -1.2 -0.6 0.6
v -1.2 -0.6 -0.6
v -1.2 -0.6 -0.7
v -1 0.2 0.5
v -1 0.2 0.3
v -1 0.2 -0.3
v -1 0.2 -0.5
v -1 0.6 0.3
v -1 0.6 -0.3
v -1 0.8 0.5
v -1 0.8 -0.5
v 0 0 0.8
v 0 0 0.7
v 0 0 -0.7
v 0 0 -0.8
v 0 0.2 0.8
v 0 0.2 0.7
v 0 0.2 -0.7
v 0 0.2 -0.8
v 0.6 -0.8 0.7
v 0.6 -0.8 0.6
v 0.6 -0.8 -0.6
v 0.6 -0.8 -0.7
v 0.6 -0.6 0.7
v 0.6 -0.6 0.6
v 0.6 -0.6 -0.6
v 0.6 -0.6 -0.7
v -0.6 -0.8 0.7
v -0.6 -0.8 0.6
v -0.6 -0.8 -0.6
v -0.6 -0.8 -0.7
v -0.6 -0.6 0.7
v -0.6 -0.6 0.6
v -0.6 -0.6 -0.6
v -0.6 -0.6 -0.7
v 0.4 0 0.8
v 0.4 0 0.7
v 0.4 0 -0.7
v 0.4 0 -0.8
v 0.4 0.2 0.8
v 0.4 0.2 0.7
v 0.4 0.2 -0.7
v 0.4 0.2 -0.8
v 0.6 0.2 0.5
v 0.6 0.2 0.3
v 0.6 0.2 -0.3
v 0.6 0.2 -0.5
v 0.6 0.6 0.3
v 0.6 0.6 -0.3
v 0.6 0.8 0.5
v 0.6 0.8 -0.5
v 1.2 -0.8 0.7
v 1.2 -0.8 0.6
v 1.2 -0.8 -0.6
v 1.2 -0.8 -0.7
v 1.2 -0.6 0.7
v 1.2 -0.6 0.6
v 1.2 -0.6 -0.6
v 1.2 -0.6 -0.7
v 1.8 -0.6 0.7
v 1.8 -0.6 -0.7
v 1.8 -0.4 0.7
v 1.8 -0.4 -0.7
v 1.8 -0.2 0.7
v 1.8 -0.2 0.5
v 1.8 -0.2 -0.5
v 1.8 -0.2 -0.7
v 1.8 0 0.7
v 1.8 0 0.5
v 1.8 0 0.3
v 1.8 0 -0.3
v 1.8 0 -0.5
v 1.8 0 -0.7
v 1.8 0.2 0.7
v 1.8 0.2 0.3
v 1.8 0.2 -0.3
v 1.8 0.2 -0.7
v 0 0 0.8
v 0 0.2 0.8
v 0.4 0 0.8
v 0.4 0.2 0.8
v -1.6 -0.6 0.7
v -1.6 -0.4 0.7
v -1.6 -0.2 0.7
v -1.6 0.2 0.7
v -1.2 -0.8 0.7
v -1.2 -0.6 0.7
v -1.2 -0.4 0.7
v -1.2 -0.2 0.7
v -1 -0.6 0.7
v -1 -0.4 0.7
v -0.8 -0.6 0.7
v -0.8 -0.4 0.7
v -0.6 -0.8 0.7
v -0.6 -0.6 0.7
v -0.6 -0.4 0.7
v -0.6 -0.2 0.7
v 0 0 0.7
v 0 0.2 0.7
v 0.4 0 0.7
v 0.4 0.2 0.7
v 0.6 -0.8 0.7
v 0.6 -0.6 0.7
v 0.6 -0.4 0.7
v 0.6 -0.2 0.7
v 0.8 -0.6 0.7
v 0.8 -0.4 0.7
v 1 -0.6 0.7
v 1 -0.4 0.7
v 1.2 -0.8 0.7
v 1.2 -0.6 0.7
v 1.2 -0.4 0.7
v 1.2 -0.2 0.7
v 1.6 -0.2 0.7
v 1.6 0 0.7
v 1.8 -0.6 0.7
v 1.8 -0.4 0.7
v 1.8 -0.2 0.7
v 1.8 0 0.7
v 1.8 0.2 0.7
v -1 0.2 0.5
v -1 0.8 0.5
v -0.8 0.2 0.5
v -0.8 0.6 0.5
v -0.6 0.2 0.5
v -0.6 0.6 0.5
v -0.4 0.2 0.5
v -0.4 0.6 0.5
v 0.4 0.2 0.5
v 0.4 0.6 0.5
v 0.6 0.2 0.5
v 0.6 0.8 0.5
v -1.2 -0.8 -0.6
v -1.2 -0.6 -0.6
v -0.6 -0.8 -0.6
v -0.6 -0.6 -0.6
v 0.6 -0.8 -0.6
v 0.6 -0.6 -0.6
v 1.2 -0.8 -0.6
v 1.2 -0.6 -0.6
v -1.2 -0.8 0.6
v -1.2 -0.6 0.6
v -0.6 -0.8 0.6
v -0.6 -0.6 0.6
v 0.6 -0.8 0.6
v 0.6 -0.6 0.6
v 1.2 -0.8 0.6
v 1.2 -0.6 0.6
v -1 0.2 -0.5
v -1 0.8 -0.5
v -0.8 0.2 -0.5
v -0.8 0.6 -0.5
v -0.6 0.2 -0.5
v -0.6 0.6 -0.5
v -0.4 0.2 -0.5
v -0.4 0.6 -0.5
v 0.4 0.2 -0.5
v 0.4 0.6 -0.5
v 0.6 0.2 -0.5
v 0.6 0.8 -0.5
v -1.6 -0.6 -0.7
v -1.6 -0.4 -0.7
v -1.6 -0.2 -0.7
v -1.6 0.2 -0.7
v -1.2 -0.8 -0.7
v -1.2 -0.6 -0.7
v -1.2 -0.4 -0.7
v -1.2 -0.2 -0.7
v -1 -0.6 -0.7
v -1 -0.4 -0.7
v -0.8 -0.6 -0.7
v -0.8 -0.4 -0.7
v -0.6 -0.8 -0.7
v -0.6 -0.6 -0.7
v -0.6 -0.4 -0.7
v -0.6 -0.2 -0.7
v 0 0 -0.7
v 0 0.2 -0.7
v 0.4 0 -0.7
v 0.4 0.2 -0.7
v 0.6 -0.8 -0.7
v 0.6 -0.6 -0.7
v 0.6 -0.4 -0.7
v 0.6 -0.2 -0.7
v 0.8 -0.6 -0.7
v 0.8 -0.4 -0.7
v 1 -0.6 -0.7
v 1 -0.4 -0.7
v 1.2 -0.8 -0.7
v 1.2 -0.6 -0.7
v 1.2 -0.4 -0.7
v 1.2 -0.2 -0.7
v 1.6 -0.2 -0.7
v 1.6 0 -0.7
v 1.8 -0.6 -0.7
v 1.8 -0.4 -0.7
v 1.8 -0.2 -0.7
v 1.8 0 -0.7
v 1.8 0.2 -0.7
v 0 0 -0.8
v 0 0.2 -0.8
v 0.4 0 -0.8
v 0.4 0.2 -0.8
v -1.2 -0.8 0.7
v -0.6 -0.8 0.7
v 0.6 -0.8 0.7
v 1.2 -0.8 0.7
v -1.2 -0.8 0.6
v -0.6 -0.8 0.6
v 0.6 -0.8 0.6
v 1.2 -0.8 0.6
v -1.2 -0.8 -0.6
v -0.6 -0.8 -0.6
v 0.6 -0.8 -0.6
v 1.2 -0.8 -0.6
v -1.2 -0.8 -0.7
v -0.6 -0.8 -0.7
v 0.6 -0.8 -0.7
v 1.2 -0.8 -0.7
v -1.6 -0.6 0.7
v -1.2 -0.6 0.7
v -0.6 -0.6 0.7
v 0.6 -0.6 0.7
v 1.2 -0.6 0.7
v 1.8 -0.6 0.7
v -1.2 -0.6 0.6
v -0.6 -0.6 0.6
v 0.6 -0.6 0.6
v 1.2 -0.6 0.6
v -1.2 -0.6 -0.6
v -0.6 -0.6 -0.6
v 0.6 -0.6 -0.6
v 1.2 -0.6 -0.6
v -1.6 -0.6 -0.7
v -1.2 -0.6 -0.7
v -0.6 -0.6 -0.7
v 0.6 -0.6 -0.7
v 1.2 -0.6 -0.7
v 1.8 -0.6 -0.7
v 0 0 0.8
v 0.4 0 0.8
v 0 0 0.7
v 0.4 0 0.7
v 0 0 -0.7
v 0.4 0 -0.7
v 0 0 -0.8
v 0.4 0 -0.8
v 0 0.2 0.8
v 0.4 0.2 0.8
v -1.6 0.2 0.7
v 0 0.2 0.7
v 0.4 0.2 0.7
v 1.8 0.2 0.7
v -1 0.2 0.5
v -0.8 0.2 0.5
v -0.6 0.2 0.5
v -0.4 0.2 0.5
v 0.4 0.2 0.5
v 0.6 0.2 0.5
v -1.6 0.2 0.3
v -1 0.2 0.3
v 0.6 0.2 0.3
v 1.8 0.2 0.3
v -1.6 0.2 -0.3
v -1 0.2 -0.3
v 0.6 0.2 -0.3
v 1.8 0.2 -0.3
v -1 0.2 -0.5
v -0.8 0.2 -0.5
v -0.6 0.2 -0.5
v -0.4 0.2 -0.5
v 0.4 0.2 -0.5
v 0.6 0.2 -0.5
v -1.6 0.2 -0.7
v 0 0.2 -0.7
v 0.4 0.2 -0.7
v 1.8 0.2 -0.7
v 0 0.2 -0.8
v 0.4 0.2 -0.8
v -1 0.8 0.5
v 0.6 0.8 0.5
v -1 0.8 -0.5
v 0.6 0.8 -0.5

# faces
f 3/4/1 2/4/1 1/4/1
f 4/4/1 2/4/1 3/4/1
f 5/2/1 4/2/1 3/2/1
f 6/2/1 4/2/1 5/2/1
f 7/1/1 6/1/1 5/1/1
f 8/1/1 6/1/1 7/1/1
f 9/1/1 7/1/1 5/1/1
f 10/2/1 8/2/1 7/2/1
f 10/1/1 7/1/1 9/1/1
f 11/1/1 6/1/1 8/1/1
f 11/2/1 8/2/1 10/2/1
f 12/1/1 6/1/1 11/1/1
f 17/5/1 14/5/1 13/5/1
f 18/5/1 14/5/1 17/5/1
f 19/5/1 16/5/1 15/5/1
f 20/5/1 16/5/1 19/5/1
f 25/3/1 22/3/1 21/3/1
f 25/5/1 23/5/1 22/5/1
f 26/3/1 24/3/1 23/3/1
f 26/5/1 23/5/1 25/5/1
f 27/3/1 25/3/1 21/3/1
f 27/3/1 26/3/1 25/3/1
f 28/3/1 24/3/1 26/3/1
f 28/3/1 26/3/1 27/3/1
f 33/2/1 30/2/1 29/2/1
f 34/2/1 30/2/1 33/2/1
f 35/2/1 32/2/1 31/2/1
f 36/2/1 32/2/1 35/2/1
f 41/5/1 38/5/1 37/5/1
f 42/5/1 38/5/1 41/5/1
f 43/5/1 40/5/1 39/5/1
f 44/5/1 40/5/1 43/5/1
f 45/5/2 46/5/2 49/5/2
f 49/5/2 46/5/2 50/5/2
f 47/5/2 48/5/2 51/5/2
f 51/5/2 48/5/2 52/5/2
f 53/2/2 54/2/2 57/2/2
f 57/2/2 54/2/2 58/2/2
f 55/2/2 56/2/2 59/2/2
f 59/2/2 56/2/2 60/2/2
f 61/3/2 62/3/2 65/3/2
f 62/5/2 63/5/2 65/5/2
f 63/3/2 64/3/2 66/3/2
f 65/5/2 63/5/2 66/5/2
f 61/3/2 65/3/2 67/3/2
f 65/3/2 66/3/2 67/3/2
f 66/3/2 64/3/2 68/3/2
f 67/3/2 66/3/2 68/3/2
f 69/5/2 70/5/2 73/5/2
f 73/5/2 70/5/2 74/5/2
f 71/5/2 72/5/2 75/5/2
f 75/5/2 72/5/2 76/5/2
f 77/4/2 78/4/2 79/4/2
f 79/4/2 78/4/2 80/4/2
f 79/2/2 80/2/2 81/2/2
f 81/2/2 80/2/2 82/2/2
f 82/2/2 80/2/2 83/2/2
f 83/2/2 80/2/2 84/2/2
f 81/3/2 82/3/2 85/3/2
f 82/1/2 83/1/2 86/1/2
f 85/3/2 82/3/2 86/3/2
f 86/1/2 83/1/2 87/1/2
f 87/1/2 83/1/2 88/1/2
f 83/3/2 84/3/2 89/3/2
f 88/1/2 83/1/2 89/1/2
f 89/3/2 84/3/2 90/3/2
f 85/1/2 86/1/2 91/1/2
f 86/1/2 87/1/2 91/1/2
f 87/2/2 88/2/2 92/2/2
f 91/1/2 87/1/2 92/1/2
f 89/1/2 90/1/2 93/1/2
f 92/2/2 88/2/2 93/2/2
f 88/1/2 89/1/2 93/1/2
f 93/1/2 90/1/2 94/1/2
f 97/2/3 96/2/3 95/2/3
f 98/2/3 96/2/3 97/2/3
f 104/4/3 100/4/3 99/4/3
f 105/2/3 101/2/3 100/2/3
f 105/4/3 100/4/3 104/4/3
f 106/1/3 102/1/3 101/1/3
f 106/2/3 101/2/3 105/2/3
f 107/5/3 105/5/3 104/5/3
f 107/5/3 104/5/3 103/5/3
f 107/5/3 106/5/3 105/5/3
f 108/5/3 106/5/3 107/5/3
f 109/5/3 107/5/3 103/5/3
f 109/3/3 108/3/3 107/3/3
f 110/5/3 106/5/3 108/5/3
f 110/3/3 108/3/3 109/3/3
f 111/5/3 109/5/3 103/5/3
f 111/5/3 110/5/3 109/5/3
f 112/5/3 110/5/3 111/5/3
f 113/5/3 106/5/3 110/5/3
f 113/5/3 110/5/3 112/5/3
f 114/1/3 102/1/3 106/1/3
f 114/5/3 106/5/3 113/5/3
f 115/1/3 102/1/3 114/1/3
f 116/1/3 102/1/3 115/1/3
f 117/1/3 115/1/3 114/1/3
f 120/4/3 113/4/3 112/4/3
f 121/2/3 114/2/3 113/2/3
f 121/4/3 113/4/3 120/4/3
f 122/1/3 118/1/3 117/1/3
f 122/2/3 114/2/3 121/2/3
f 122/1/3 117/1/3 114/1/3
f 123/5/3 121/5/3 120/5/3
f 123/5/3 120/5/3 119/5/3
f 123/5/3 122/5/3 121/5/3
f 124/5/3 122/5/3 123/5/3
f 125/5/3 123/5/3 119/5/3
f 125/3/3 124/3/3 123/3/3
f 126/5/3 122/5/3 124/5/3
f 126/3/3 124/3/3 125/3/3
f 127/5/3 125/5/3 119/5/3
f 127/5/3 126/5/3 125/5/3
f 128/5/3 126/5/3 127/5/3
f 129/5/3 122/5/3 126/5/3
f 129/5/3 126/5/3 128/5/3
f 130/1/3 118/1/3 122/1/3
f 130/5/3 122/5/3 129/5/3
f 131/1/3 118/1/3 130/1/3
f 131/2/3 130/2/3 129/2/3
f 132/1/3 118/1/3 131/1/3
f 133/4/3 129/4/3 128/4/3
f 134/2/3 131/2/3 129/2/3
f 134/4/3 129/4/3 133/4/3
f 135/3/3 132/3/3 131/3/3
f 135/2/3 131/2/3 134/2/3
f 136/1/3 118/1/3 132/1/3
f 136/3/3 132/3/3 135/3/3
f 137/1/3 118/1/3 136/1/3
f 140/3/3 139/3/3 138/3/3
f 141/3/3 139/3/3 140/3/3
f 142/5/3 141/5/3 140/5/3
f 143/3/3 139/3/3 141/3/3
f 143/5/3 141/5/3 142/5/3
f 144/3/3 143/3/3 142/3/3
f 145/3/3 139/3/3 143/3/3
f 145/3/3 143/3/3 144/3/3
f 146/5/3 145/5/3 144/5/3
f 147/3/3 139/3/3 145/3/3
f 147/5/3 145/5/3 146/5/3
f 148/3/3 147/3/3 146/3/3
f 149/3/3 139/3/3 147/3/3
f 149/3/3 147/3/3 148/3/3
f 152/5/3 151/5/3 150/5/3
f 153/5/3 151/5/3 152/5/3
f 156/5/3 155/5/3 154/5/3
f 157/5/3 155/5/3 156/5/3
f 158/5/4 159/5/4 160/5/4
f 160/5/4 159/5/4 161/5/4
f 162/5/4 163/5/4 164/5/4
f 164/5/4 163/5/4 165/5/4
f 166/3/4 167/3/4 168/3/4
f 168/3/4 167/3/4 169/3/4
f 168/5/4 169/5/4 170/5/4
f 169/3/4 167/3/4 171/3/4
f 170/5/4 169/5/4 171/5/4
f 170/3/4 171/3/4 172/3/4
f 171/3/4 167/3/4 173/3/4
f 172/3/4 171/3/4 173/3/4
f 172/5/4 173/5/4 174/5/4
f 173/3/4 167/3/4 175/3/4
f 174/5/4 173/5/4 175/5/4
f 174/3/4 175/3/4 176/3/4
f 175/3/4 167/3/4 177/3/4
f 176/3/4 175/3/4 177/3/4
f 178/4/4 179/4/4 183/4/4
f 179/2/4 180/2/4 184/2/4
f 183/4/4 179/4/4 184/4/4
f 180/1/4 181/1/4 185/1/4
f 184/2/4 180/2/4 185/2/4
f 183/5/4 184/5/4 186/5/4
f 182/5/4 183/5/4 186/5/4
f 184/5/4 185/5/4 186/5/4
f 186/5/4 185/5/4 187/5/4
f 182/5/4 186/5/4 188/5/4
f 186/3/4 187/3/4 188/3/4
f 187/5/4 185/5/4 189/5/4
f 188/3/4 187/3/4 189/3/4
f 182/5/4 188/5/4 190/5/4
f 188/5/4 189/5/4 190/5/4
f 190/5/4 189/5/4 191/5/4
f 189/5/4 185/5/4 192/5/4
f 191/5/4 189/5/4 192/5/4
f 185/1/4 181/1/4 193/1/4
f 192/5/4 185/5/4 193/5/4
f 193/1/4 181/1/4 194/1/4
f 194/1/4 181/1/4 195/1/4
f 193/1/4 194/1/4 196/1/4
f 191/4/4 192/4/4 199/4/4
f 192/2/4 193/2/4 200/2/4
f 199/4/4 192/4/4 200/4/4
f 196/1/4 197/1/4 201/1/4
f 200/2/4 193/2/4 201/2/4
f 193/1/4 196/1/4 201/1/4
f 199/5/4 200/5/4 202/5/4
f 198/5/4 199/5/4 202/5/4
f 200/5/4 201/5/4 202/5/4
f 202/5/4 201/5/4 203/5/4
f 198/5/4 202/5/4 204/5/4
f 202/3/4 203/3/4 204/3/4
f 203/5/4 201/5/4 205/5/4
f 204/3/4 203/3/4 205/3/4
f 198/5/4 204/5/4 206/5/4
f 204/5/4 205/5/4 206/5/4
f 206/5/4 205/5/4 207/5/4
f 205/5/4 201/5/4 208/5/4
f 207/5/4 205/5/4 208/5/4
f 201/1/4 197/1/4 209/1/4
f 208/5/4 201/5/4 209/5/4
f 209/1/4 197/1/4 210/1/4
f 208/2/4 209/2/4 210/2/4
f 210/1/4 197/1/4 211/1/4
f 207/4/4 208/4/4 212/4/4
f 208/2/4 210/2/4 213/2/4
f 212/4/4 208/4/4 213/4/4
f 210/3/4 211/3/4 214/3/4
f 213/2/4 210/2/4 214/2/4
f 211/1/4 197/1/4 215/1/4
f 214/3/4 211/3/4 215/3/4
f 215/1/4 197/1/4 216/1/4
f 217/2/4 218/2/4 219/2/4
f 219/2/4 218/2/4 220/2/4
f 225/5/5 222/5/5 221/5/5
f 226/5/5 222/5/5 225/5/5
f 227/5/5 224/5/5 223/5/5
f 228/5/5 224/5/5 227/5/5
f 233/5/5 230/5/5 229/5/5
f 234/5/5 230/5/5 233/5/5
f 235/5/5 232/5/5 231/5/5
f 236/5/5 232/5/5 235/5/5
f 243/4/5 238/4/5 237/4/5
f 244/4/5 240/4/5 239/4/5
f 245/4/5 240/4/5 244/4/5
f 246/4/5 242/4/5 241/4/5
f 247/4/5 245/4/5 244/4/5
f 247/4/5 246/4/5 245/4/5
f 247/4/5 243/4/5 237/4/5
f 247/4/5 244/4/5 243/4/5
f 248/4/5 246/4/5 247/4/5
f 249/4/5 246/4/5 248/4/5
f 250/4/5 242/4/5 246/4/5
f 250/4/5 246/4/5 249/4/5
f 251/4/5 247/4/5 237/4/5
f 252/4/5 247/4/5 251/4/5
f 253/4/5 249/4/5 248/4/5
f 254/4/5 249/4/5 253/4/5
f 255/4/5 242/4/5 250/4/5
f 256/4/5 242/4/5 255/4/5
f 259/2/5 258/2/5 257/2/5
f 260/2/5 258/2/5 259/2/5
f 263/2/5 262/2/5 261/2/5
f 264/2/5 262/2/5 263/2/5
f 265/2/6 266/2/6 268/2/6
f 268/2/6 266/2/6 269/2/6
f 267/1/6 268/1/6 271/1/6
f 269/1/6 270/1/6 271/1/6
f 268/1/6 269/1/6 271/1/6
f 271/1/6 270/1/6 272/1/6
f 272/1/6 270/1/6 273/1/6
f 273/1/6 270/1/6 274/1/6
f 274/1/6 270/1/6 275/1/6
f 275/1/6 270/1/6 276/1/6
f 267/1/6 271/1/6 277/1/6
f 277/1/6 271/1/6 278/1/6
f 276/1/6 270/1/6 279/1/6
f 279/1/6 270/1/6 280/1/6
f 277/2/6 278/2/6 281/2/6
f 281/2/6 278/2/6 282/2/6
f 279/2/6 280/2/6 283/2/6
f 283/2/6 280/2/6 284/2/6
f 281/1/6 282/1/6 285/1/6
f 283/1/6 284/1/6 290/1/6
f 288/1/6 289/1/6 291/1/6
f 289/1/6 290/1/6 291/1/6
f 281/1/6 285/1/6 291/1/6
f 285/1/6 286/1/6 291/1/6
f 287/1/6 288/1/6 291/1/6
f 286/1/6 287/1/6 291/1/6
f 291/1/6 290/1/6 292/1/6
f 292/1/6 290/1/6 293/1/6
f 290/1/6 284/1/6 294/1/6
f 293/1/6 290/1/6 294/1/6
f 292/2/6 293/2/6 295/2/6
f 295/2/6 293/2/6 296/2/6
f 297/3/6 298/3/6 299/3/6
f 299/3/6 298/3/6 300/3/6
