# MagicaVoxel @ Ephtracy

# group
o 

# material
mtllib roady_cross_assets-10.mtl
usemtl palette

# normals
vn -1 0 0
vn 1 0 0
vn 0 0 1
vn 0 0 -1
vn 0 -1 0
vn 0 1 0

# texcoords
vt 0.560547 0.5
vt 0.955078 0.5
vt 0.970703 0.5
vt 0.986328 0.5

# verts
v -0.1 -1.6 0.1
v -0.1 -1.6 -0.1
v -0.1 -1.2 0.1
v -0.1 -1.2 -0.1
v -0.1 -1 0.1
v -0.1 -1 -0.1
v -0.1 -0.6 0.1
v -0.1 -0.6 -0.1
v -0.1 -0.4 0.1
v -0.1 -0.4 -0.1
v -0.1 0 0.1
v -0.1 0 -0.1
v -0.1 0.2 0.1
v -0.1 0.2 -0.1
v -0.1 0.6 0.1
v -0.1 0.6 -0.1
v -0.1 0.8 0.1
v -0.1 0.8 -0.1
v 0.1 -0.1 0.5
v 0.1 -0.1 0.1
v 0.1 -0.1 -0.1
v 0.1 -0.1 -0.5
v 0.1 0 0.1
v 0.1 0 -0.1
v 0.1 0.2 0.1
v 0.1 0.2 -0.1
v 0.1 0.4 0.5
v 0.1 0.4 0.1
v 0.1 0.4 -0.1
v 0.1 0.4 -0.5
v 0.2 -0.2 0.3
v 0.2 -0.2 0.1
v 0.2 -0.2 -0.1
v 0.2 -0.2 -0.3
v 0.2 -0.1 0.3
v 0.2 -0.1 0.1
v 0.2 -0.1 -0.1
v 0.2 -0.1 -0.3
v 0.1 -1.6 0.1
v 0.1 -1.6 -0.1
v 0.1 -1.2 0.1
v 0.1 -1.2 -0.1
v 0.1 -1 0.1
v 0.1 -1 -0.1
v 0.1 -0.6 0.1
v 0.1 -0.6 -0.1
v 0.1 -0.4 0.1
v 0.1 -0.4 -0.1
v 0.1 -0.1 0.1
v 0.1 -0.1 -0.1
v 0.1 0.4 0.1
v 0.1 0.4 -0.1
v 0.1 0.6 0.1
v 0.1 0.6 -0.1
v 0.1 0.8 0.1
v 0.1 0.8 -0.1
v 0.2 -0.1 0.5
v 0.2 -0.1 0.3
v 0.2 -0.1 0.1
v 0.2 -0.1 -0.1
v 0.2 -0.1 -0.3
v 0.2 -0.1 -0.5
v 0.2 0 0.3
v 0.2 0 0.1
v 0.2 0 -0.1
v 0.2 0 -0.3
v 0.2 0.4 0.5
v 0.2 0.4 -0.5
v 0.3 -0.2 0.3
v 0.3 -0.2 0.1
v 0.3 -0.2 -0.1
v 0.3 -0.2 -0.3
v 0.3 0 0.3
v 0.3 0 0.1
v 0.3 0 -0.1
v 0.3 0 -0.3
v 0.1 -0.1 0.5
v 0.1 0.4 0.5
v 0.2 -0.1 0.5
v 0.2 0.4 0.5
v 0.2 -0.2 0.3
v 0.2 -0.1 0.3
v 0.2 0 0.3
v 0.3 -0.2 0.3
v 0.3 0 0.3
v -0.1 -1.6 0.1
v -0.1 -1.2 0.1
v -0.1 -1 0.1
v -0.1 -0.6 0.1
v -0.1 -0.4 0.1
v -0.1 0 0.1
v -0.1 0.2 0.1
v -0.1 0.6 0.1
v -0.1 0.8 0.1
v 0.1 -1.6 0.1
v 0.1 -1.2 0.1
v 0.1 -1 0.1
v 0.1 -0.6 0.1
v 0.1 -0.4 0.1
v 0.1 -0.1 0.1
v 0.1 0 0.1
v 0.1 0.2 0.1
v 0.1 0.4 0.1
v 0.1 0.6 0.1
v 0.1 0.8 0.1
v 0.2 -0.2 -0.1
v 0.2 -0.1 -0.1
v 0.2 0 -0.1
v 0.3 -0.2 -0.1
v 0.3 0 -0.1
v 0.2 -0.2 0.1
v 0.2 -0.1 0.1
v 0.2 0 0.1
v 0.3 -0.2 0.1
v 0.3 0 0.1
v -0.1 -1.6 -0.1
v -0.1 -1.2 -0.1
v -0.1 -1 -0.1
v -0.1 -0.6 -0.1
v -0.1 -0.4 -0.1
v -0.1 0 -0.1
v -0.1 0.2 -0.1
v -0.1 0.6 -0.1
v -0.1 0.8 -0.1
v 0.1 -1.6 -0.1
v 0.1 -1.2 -0.1
v 0.1 -1 -0.1
v 0.1 -0.6 -0.1
v 0.1 -0.4 -0.1
v 0.1 -0.1 -0.1
v 0.1 0 -0.1
v 0.1 0.2 -0.1
v 0.1 0.4 -0.1
v 0.1 0.6 -0.1
v 0.1 0.8 -0.1
v 0.2 -0.2 -0.3
v 0.2 -0.1 -0.3
v 0.2 0 -0.3
v 0.3 -0.2 -0.3
v 0.3 0 -0.3
v 0.1 -0.1 -0.5
v 0.1 0.4 -0.5
v 0.2 -0.1 -0.5
v 0.2 0.4 -0.5
v -0.1 -1.6 0.1
v 0.1 -1.6 0.1
v -0.1 -1.6 -0.1
v 0.1 -1.6 -0.1
v 0.2 -0.2 0.3
v 0.3 -0.2 0.3
v 0.2 -0.2 0.1
v 0.3 -0.2 0.1
v 0.2 -0.2 -0.1
v 0.3 -0.2 -0.1
v 0.2 -0.2 -0.3
v 0.3 -0.2 -0.3
v 0.1 -0.1 0.5
v 0.2 -0.1 0.5
v 0.2 -0.1 0.3
v 0.1 -0.1 0.1
v 0.2 -0.1 0.1
v 0.1 -0.1 -0.1
v 0.2 -0.1 -0.1
v 0.2 -0.1 -0.3
v 0.1 -0.1 -0.5
v 0.2 -0.1 -0.5
v 0.2 0 0.3
v 0.3 0 0.3
v 0.2 0 0.1
v 0.3 0 0.1
v 0.2 0 -0.1
v 0.3 0 -0.1
v 0.2 0 -0.3
v 0.3 0 -0.3
v 0.1 0.4 0.5
v 0.2 0.4 0.5
v 0.1 0.4 0.1
v 0.1 0.4 -0.1
v 0.1 0.4 -0.5
v 0.2 0.4 -0.5
v -0.1 0.8 0.1
v 0.1 0.8 0.1
v -0.1 0.8 -0.1
v 0.1 0.8 -0.1

# faces
f 3/1/1 2/1/1 1/1/1
f 4/1/1 2/1/1 3/1/1
f 5/3/1 4/3/1 3/3/1
f 6/3/1 4/3/1 5/3/1
f 7/1/1 6/1/1 5/1/1
f 8/1/1 6/1/1 7/1/1
f 9/3/1 8/3/1 7/3/1
f 10/3/1 8/3/1 9/3/1
f 11/1/1 10/1/1 9/1/1
f 12/1/1 10/1/1 11/1/1
f 13/3/1 12/3/1 11/3/1
f 14/3/1 12/3/1 13/3/1
f 15/1/1 14/1/1 13/1/1
f 16/1/1 14/1/1 15/1/1
f 17/3/1 16/3/1 15/3/1
f 18/3/1 16/3/1 17/3/1
f 23/2/1 20/2/1 19/2/1
f 24/2/1 22/2/1 21/2/1
f 25/2/1 23/2/1 19/2/1
f 26/2/1 22/2/1 24/2/1
f 27/2/1 25/2/1 19/2/1
f 28/2/1 25/2/1 27/2/1
f 29/2/1 22/2/1 26/2/1
f 30/2/1 22/2/1 29/2/1
f 35/4/1 32/4/1 31/4/1
f 36/4/1 32/4/1 35/4/1
f 37/4/1 34/4/1 33/4/1
f 38/4/1 34/4/1 37/4/1
f 39/1/2 40/1/2 41/1/2
f 41/1/2 40/1/2 42/1/2
f 41/3/2 42/3/2 43/3/2
f 43/3/2 42/3/2 44/3/2
f 43/1/2 44/1/2 45/1/2
f 45/1/2 44/1/2 46/1/2
f 45/3/2 46/3/2 47/3/2
f 47/3/2 46/3/2 48/3/2
f 47/1/2 48/1/2 49/1/2
f 49/1/2 48/1/2 50/1/2
f 51/1/2 52/1/2 53/1/2
f 53/1/2 52/1/2 54/1/2
f 53/3/2 54/3/2 55/3/2
f 55/3/2 54/3/2 56/3/2
f 57/2/2 58/2/2 63/2/2
f 59/2/2 60/2/2 64/2/2
f 64/2/2 60/2/2 65/2/2
f 61/2/2 62/2/2 66/2/2
f 64/2/2 65/2/2 67/2/2
f 65/2/2 66/2/2 67/2/2
f 57/2/2 63/2/2 67/2/2
f 63/2/2 64/2/2 67/2/2
f 66/2/2 62/2/2 68/2/2
f 67/2/2 66/2/2 68/2/2
f 69/4/2 70/4/2 73/4/2
f 73/4/2 70/4/2 74/4/2
f 71/4/2 72/4/2 75/4/2
f 75/4/2 72/4/2 76/4/2
f 79/2/3 78/2/3 77/2/3
f 80/2/3 78/2/3 79/2/3
f 84/4/3 82/4/3 81/4/3
f 84/4/3 83/4/3 82/4/3
f 85/4/3 83/4/3 84/4/3
f 95/1/3 87/1/3 86/1/3
f 96/3/3 88/3/3 87/3/3
f 96/1/3 87/1/3 95/1/3
f 97/1/3 89/1/3 88/1/3
f 97/3/3 88/3/3 96/3/3
f 98/3/3 90/3/3 89/3/3
f 98/1/3 89/1/3 97/1/3
f 99/1/3 91/1/3 90/1/3
f 99/3/3 90/3/3 98/3/3
f 100/1/3 91/1/3 99/1/3
f 101/3/3 92/3/3 91/3/3
f 101/1/3 91/1/3 100/1/3
f 102/1/3 93/1/3 92/1/3
f 102/3/3 92/3/3 101/3/3
f 103/1/3 93/1/3 102/1/3
f 104/3/3 94/3/3 93/3/3
f 104/1/3 93/1/3 103/1/3
f 105/3/3 94/3/3 104/3/3
f 109/4/3 107/4/3 106/4/3
f 109/4/3 108/4/3 107/4/3
f 110/4/3 108/4/3 109/4/3
f 111/4/4 112/4/4 114/4/4
f 112/4/4 113/4/4 114/4/4
f 114/4/4 113/4/4 115/4/4
f 116/1/4 117/1/4 125/1/4
f 117/3/4 118/3/4 126/3/4
f 125/1/4 117/1/4 126/1/4
f 118/1/4 119/1/4 127/1/4
f 126/3/4 118/3/4 127/3/4
f 119/3/4 120/3/4 128/3/4
f 127/1/4 119/1/4 128/1/4
f 120/1/4 121/1/4 129/1/4
f 128/3/4 120/3/4 129/3/4
f 129/1/4 121/1/4 130/1/4
f 121/3/4 122/3/4 131/3/4
f 130/1/4 121/1/4 131/1/4
f 122/1/4 123/1/4 132/1/4
f 131/3/4 122/3/4 132/3/4
f 132/1/4 123/1/4 133/1/4
f 123/3/4 124/3/4 134/3/4
f 133/1/4 123/1/4 134/1/4
f 134/3/4 124/3/4 135/3/4
f 136/4/4 137/4/4 139/4/4
f 137/4/4 138/4/4 139/4/4
f 139/4/4 138/4/4 140/4/4
f 141/2/4 142/2/4 143/2/4
f 143/2/4 142/2/4 144/2/4
f 147/1/5 146/1/5 145/1/5
f 148/1/5 146/1/5 147/1/5
f 151/4/5 150/4/5 149/4/5
f 152/4/5 150/4/5 151/4/5
f 155/4/5 154/4/5 153/4/5
f 156/4/5 154/4/5 155/4/5
f 159/2/5 158/2/5 157/2/5
f 160/2/5 159/2/5 157/2/5
f 161/2/5 159/2/5 160/2/5
f 162/2/5 161/2/5 160/2/5
f 163/2/5 161/2/5 162/2/5
f 164/2/5 163/2/5 162/2/5
f 165/2/5 164/2/5 162/2/5
f 166/2/5 164/2/5 165/2/5
f 167/4/6 168/4/6 169/4/6
f 169/4/6 168/4/6 170/4/6
f 171/4/6 172/4/6 173/4/6
f 173/4/6 172/4/6 174/4/6
f 175/2/6 176/2/6 177/2/6
f 177/2/6 176/2/6 178/2/6
f 178/2/6 176/2/6 179/2/6
f 179/2/6 176/2/6 180/2/6
f 181/3/6 182/3/6 183/3/6
f 183/3/6 182/3/6 184/3/6
