# MagicaVoxel @ Ephtracy

# group
o 

# material
mtllib roady_cross_assets-2.mtl
usemtl palette

# normals
vn -1 0 0
vn 1 0 0
vn 0 0 1
vn 0 0 -1
vn 0 -1 0
vn 0 1 0

# texcoords
vt 0.0214844 0.5
vt 0.0253906 0.5
vt 0.0292969 0.5

# verts
v -0.8 -0.8 0.4
v -0.8 -0.8 0.3
v -0.8 -0.8 -0.3
v -0.8 -0.8 -0.4
v -0.8 -0.7 0.3
v -0.8 -0.7 -0.3
v -0.8 -0.6 0.4
v -0.8 -0.6 -0.4
v 0.8 -0.8 0.4
v 0.8 -0.8 0.3
v 0.8 -0.8 -0.3
v 0.8 -0.8 -0.4
v 0.8 -0.7 0.3
v 0.8 -0.7 -0.3
v 0.8 -0.6 0.4
v 0.8 -0.6 -0.4
v -0.8 -0.8 0.4
v -0.8 -0.6 0.4
v -0.7 -0.8 0.4
v -0.7 -0.6 0.4
v -0.6 -0.8 0.4
v -0.6 -0.6 0.4
v -0.4 -0.8 0.4
v -0.4 -0.7 0.4
v -0.1 -0.8 0.4
v -0.1 -0.7 0.4
v 0.2 -0.7 0.4
v 0.2 -0.6 0.4
v 0.5 -0.7 0.4
v 0.5 -0.6 0.4
v 0.6 -0.8 0.4
v 0.6 -0.7 0.4
v 0.7 -0.8 0.4
v 0.7 -0.7 0.4
v 0.7 -0.6 0.4
v 0.8 -0.8 0.4
v 0.8 -0.6 0.4
v -0.8 -0.8 -0.3
v -0.8 -0.7 -0.3
v -0.7 -0.8 -0.3
v -0.7 -0.7 -0.3
v -0.6 -0.8 -0.3
v -0.6 -0.7 -0.3
v -0.5 -0.7 -0.3
v -0.4 -0.8 -0.3
v -0.4 -0.7 -0.3
v 0.1 -0.7 -0.3
v 0.3 -0.8 -0.3
v 0.3 -0.7 -0.3
v 0.7 -0.8 -0.3
v 0.7 -0.7 -0.3
v 0.8 -0.8 -0.3
v 0.8 -0.7 -0.3
v -0.8 -0.8 0.3
v -0.8 -0.7 0.3
v -0.7 -0.8 0.3
v -0.7 -0.7 0.3
v -0.6 -0.8 0.3
v -0.6 -0.7 0.3
v -0.5 -0.7 0.3
v -0.4 -0.8 0.3
v -0.4 -0.7 0.3
v -0.1 -0.8 0.3
v -0.1 -0.7 0.3
v 0.1 -0.7 0.3
v 0.4 -0.7 0.3
v 0.6 -0.8 0.3
v 0.6 -0.7 0.3
v 0.7 -0.8 0.3
v 0.7 -0.7 0.3
v 0.8 -0.8 0.3
v 0.8 -0.7 0.3
v -0.8 -0.8 -0.4
v -0.8 -0.6 -0.4
v -0.7 -0.8 -0.4
v -0.7 -0.6 -0.4
v -0.6 -0.8 -0.4
v -0.6 -0.7 -0.4
v -0.4 -0.8 -0.4
v -0.4 -0.7 -0.4
v 0 -0.7 -0.4
v 0 -0.6 -0.4
v 0.1 -0.7 -0.4
v 0.1 -0.6 -0.4
v 0.3 -0.8 -0.4
v 0.3 -0.6 -0.4
v 0.5 -0.7 -0.4
v 0.5 -0.6 -0.4
v 0.7 -0.8 -0.4
v 0.7 -0.7 -0.4
v 0.7 -0.6 -0.4
v 0.8 -0.8 -0.4
v 0.8 -0.6 -0.4
v -0.8 -0.8 0.4
v -0.7 -0.8 0.4
v -0.6 -0.8 0.4
v -0.4 -0.8 0.4
v -0.1 -0.8 0.4
v 0.6 -0.8 0.4
v 0.7 -0.8 0.4
v 0.8 -0.8 0.4
v -0.8 -0.8 0.3
v -0.7 -0.8 0.3
v -0.6 -0.8 0.3
v -0.4 -0.8 0.3
v -0.1 -0.8 0.3
v 0.6 -0.8 0.3
v 0.7 -0.8 0.3
v 0.8 -0.8 0.3
v -0.8 -0.8 -0.3
v -0.7 -0.8 -0.3
v -0.6 -0.8 -0.3
v -0.4 -0.8 -0.3
v 0.3 -0.8 -0.3
v 0.7 -0.8 -0.3
v 0.8 -0.8 -0.3
v -0.8 -0.8 -0.4
v -0.7 -0.8 -0.4
v -0.6 -0.8 -0.4
v -0.4 -0.8 -0.4
v 0.3 -0.8 -0.4
v 0.7 -0.8 -0.4
v 0.8 -0.8 -0.4
v -0.8 -0.7 0.3
v -0.7 -0.7 0.3
v -0.6 -0.7 0.3
v -0.5 -0.7 0.3
v -0.4 -0.7 0.3
v -0.1 -0.7 0.3
v 0.1 -0.7 0.3
v 0.4 -0.7 0.3
v 0.6 -0.7 0.3
v 0.7 -0.7 0.3
v 0.8 -0.7 0.3
v -0.7 -0.7 0.2
v -0.5 -0.7 0.2
v -0.3 -0.7 0.2
v -0.1 -0.7 0.2
v 0.1 -0.7 0.2
v 0.4 -0.7 0.2
v 0.5 -0.7 0.2
v 0.7 -0.7 0.2
v -0.3 -0.7 0.1
v -0.1 -0.7 0.1
v -0.6 -0.7 0
v -0.3 -0.7 0
v 0.5 -0.7 0
v 0.7 -0.7 0
v -0.6 -0.7 -0.1
v -0.5 -0.7 -0.1
v -0.3 -0.7 -0.1
v -0.1 -0.7 -0.1
v 0.3 -0.7 -0.1
v 0.7 -0.7 -0.1
v -0.1 -0.7 -0.2
v 0.1 -0.7 -0.2
v 0.3 -0.7 -0.2
v 0.7 -0.7 -0.2
v -0.8 -0.7 -0.3
v -0.7 -0.7 -0.3
v -0.6 -0.7 -0.3
v -0.5 -0.7 -0.3
v -0.4 -0.7 -0.3
v 0.1 -0.7 -0.3
v 0.3 -0.7 -0.3
v 0.7 -0.7 -0.3
v 0.8 -0.7 -0.3
v -0.8 -0.6 0.4
v -0.7 -0.6 0.4
v -0.6 -0.6 0.4
v 0.2 -0.6 0.4
v 0.5 -0.6 0.4
v 0.7 -0.6 0.4
v 0.8 -0.6 0.4
v -0.6 -0.6 0.3
v -0.5 -0.6 0.3
v 0.1 -0.6 0.3
v 0.2 -0.6 0.3
v 0.4 -0.6 0.3
v 0.5 -0.6 0.3
v -0.7 -0.6 0.2
v -0.5 -0.6 0.2
v -0.3 -0.6 0.2
v -0.1 -0.6 0.2
v 0.1 -0.6 0.2
v 0.4 -0.6 0.2
v 0.5 -0.6 0.2
v 0.7 -0.6 0.2
v -0.3 -0.6 0.1
v -0.1 -0.6 0.1
v -0.6 -0.6 0
v -0.3 -0.6 0
v 0.5 -0.6 0
v 0.7 -0.6 0
v -0.6 -0.6 -0.1
v -0.5 -0.6 -0.1
v -0.3 -0.6 -0.1
v -0.1 -0.6 -0.1
v 0.3 -0.6 -0.1
v 0.7 -0.6 -0.1
v -0.1 -0.6 -0.2
v 0.1 -0.6 -0.2
v 0.3 -0.6 -0.2
v 0.7 -0.6 -0.2
v -0.5 -0.6 -0.3
v 0 -0.6 -0.3
v 0.3 -0.6 -0.3
v 0.5 -0.6 -0.3
v -0.8 -0.6 -0.4
v -0.7 -0.6 -0.4
v 0 -0.6 -0.4
v 0.1 -0.6 -0.4
v 0.3 -0.6 -0.4
v 0.5 -0.6 -0.4
v 0.7 -0.6 -0.4
v 0.8 -0.6 -0.4

# faces
f 5/2/1 2/2/1 1/2/1
f 6/2/1 4/2/1 3/2/1
f 7/2/1 5/2/1 1/2/1
f 7/2/1 6/2/1 5/2/1
f 8/2/1 4/2/1 6/2/1
f 8/2/1 6/2/1 7/2/1
f 9/2/2 10/2/2 13/2/2
f 11/2/2 12/2/2 14/2/2
f 9/2/2 13/2/2 15/2/2
f 13/2/2 14/2/2 15/2/2
f 14/2/2 12/2/2 16/2/2
f 15/2/2 14/2/2 16/2/2
f 19/2/3 18/2/3 17/2/3
f 20/2/3 18/2/3 19/2/3
f 21/1/3 20/1/3 19/1/3
f 22/1/3 20/1/3 21/1/3
f 23/3/3 22/3/3 21/3/3
f 24/3/3 22/3/3 23/3/3
f 25/1/3 24/1/3 23/1/3
f 26/3/3 22/3/3 24/3/3
f 26/1/3 24/1/3 25/1/3
f 27/3/3 26/3/3 25/3/3
f 27/3/3 22/3/3 26/3/3
f 28/3/3 22/3/3 27/3/3
f 29/3/3 27/3/3 25/3/3
f 29/1/3 28/1/3 27/1/3
f 30/1/3 28/1/3 29/1/3
f 31/3/3 29/3/3 25/3/3
f 31/3/3 30/3/3 29/3/3
f 32/3/3 30/3/3 31/3/3
f 33/1/3 32/1/3 31/1/3
f 34/3/3 30/3/3 32/3/3
f 34/1/3 32/1/3 33/1/3
f 35/3/3 30/3/3 34/3/3
f 36/2/3 34/2/3 33/2/3
f 36/2/3 35/2/3 34/2/3
f 37/2/3 35/2/3 36/2/3
f 40/2/3 39/2/3 38/2/3
f 41/2/3 39/2/3 40/2/3
f 42/3/3 41/3/3 40/3/3
f 43/3/3 41/3/3 42/3/3
f 44/1/3 43/1/3 42/1/3
f 45/1/3 44/1/3 42/1/3
f 46/1/3 44/1/3 45/1/3
f 47/3/3 46/3/3 45/3/3
f 48/3/3 47/3/3 45/3/3
f 49/3/3 47/3/3 48/3/3
f 50/1/3 49/1/3 48/1/3
f 51/1/3 49/1/3 50/1/3
f 52/2/3 51/2/3 50/2/3
f 53/2/3 51/2/3 52/2/3
f 54/2/4 55/2/4 56/2/4
f 56/2/4 55/2/4 57/2/4
f 56/1/4 57/1/4 58/1/4
f 58/1/4 57/1/4 59/1/4
f 58/3/4 59/3/4 60/3/4
f 58/3/4 60/3/4 61/3/4
f 61/3/4 60/3/4 62/3/4
f 61/1/4 62/1/4 63/1/4
f 63/1/4 62/1/4 64/1/4
f 63/3/4 64/3/4 65/3/4
f 63/3/4 65/3/4 66/3/4
f 63/3/4 66/3/4 67/3/4
f 67/3/4 66/3/4 68/3/4
f 67/1/4 68/1/4 69/1/4
f 69/1/4 68/1/4 70/1/4
f 69/2/4 70/2/4 71/2/4
f 71/2/4 70/2/4 72/2/4
f 73/2/4 74/2/4 75/2/4
f 75/2/4 74/2/4 76/2/4
f 75/3/4 76/3/4 77/3/4
f 77/3/4 76/3/4 78/3/4
f 77/1/4 78/1/4 79/1/4
f 78/3/4 76/3/4 80/3/4
f 79/1/4 78/1/4 80/1/4
f 79/3/4 80/3/4 81/3/4
f 80/3/4 76/3/4 81/3/4
f 81/3/4 76/3/4 82/3/4
f 79/3/4 81/3/4 83/3/4
f 81/1/4 82/1/4 83/1/4
f 83/1/4 82/1/4 84/1/4
f 79/3/4 83/3/4 85/3/4
f 83/3/4 84/3/4 85/3/4
f 85/3/4 84/3/4 86/3/4
f 85/1/4 86/1/4 87/1/4
f 87/1/4 86/1/4 88/1/4
f 85/1/4 87/1/4 89/1/4
f 87/3/4 88/3/4 90/3/4
f 89/1/4 87/1/4 90/1/4
f 90/3/4 88/3/4 91/3/4
f 89/2/4 90/2/4 92/2/4
f 90/2/4 91/2/4 92/2/4
f 92/2/4 91/2/4 93/2/4
f 102/2/5 95/2/5 94/2/5
f 103/1/5 96/1/5 95/1/5
f 103/2/5 95/2/5 102/2/5
f 104/3/5 97/3/5 96/3/5
f 104/1/5 96/1/5 103/1/5
f 105/1/5 98/1/5 97/1/5
f 105/3/5 97/3/5 104/3/5
f 106/3/5 99/3/5 98/3/5
f 106/1/5 98/1/5 105/1/5
f 107/1/5 100/1/5 99/1/5
f 107/3/5 99/3/5 106/3/5
f 108/2/5 101/2/5 100/2/5
f 108/1/5 100/1/5 107/1/5
f 109/2/5 101/2/5 108/2/5
f 117/2/5 111/2/5 110/2/5
f 118/3/5 112/3/5 111/3/5
f 118/2/5 111/2/5 117/2/5
f 119/1/5 113/1/5 112/1/5
f 119/3/5 112/3/5 118/3/5
f 120/3/5 114/3/5 113/3/5
f 120/1/5 113/1/5 119/1/5
f 121/1/5 115/1/5 114/1/5
f 121/3/5 114/3/5 120/3/5
f 122/2/5 116/2/5 115/2/5
f 122/1/5 115/1/5 121/1/5
f 123/2/5 116/2/5 122/2/5
f 135/2/5 125/2/5 124/2/5
f 135/1/5 126/1/5 125/1/5
f 135/1/5 127/1/5 126/1/5
f 136/3/5 128/3/5 127/3/5
f 136/1/5 127/1/5 135/1/5
f 136/3/5 129/3/5 128/3/5
f 136/3/5 130/3/5 129/3/5
f 137/3/5 130/3/5 136/3/5
f 138/3/5 130/3/5 137/3/5
f 139/1/5 131/1/5 130/1/5
f 139/3/5 130/3/5 138/3/5
f 140/3/5 133/3/5 132/3/5
f 140/1/5 131/1/5 139/1/5
f 140/3/5 132/3/5 131/3/5
f 141/3/5 133/3/5 140/3/5
f 142/2/5 134/2/5 133/2/5
f 142/3/5 133/3/5 141/3/5
f 143/3/5 137/3/5 136/3/5
f 143/1/5 138/1/5 137/1/5
f 143/3/5 136/3/5 135/3/5
f 144/3/5 141/3/5 140/3/5
f 144/1/5 138/1/5 143/1/5
f 144/3/5 139/3/5 138/3/5
f 144/3/5 140/3/5 139/3/5
f 145/3/5 143/3/5 135/3/5
f 145/3/5 144/3/5 143/3/5
f 146/3/5 144/3/5 145/3/5
f 147/3/5 141/3/5 144/3/5
f 147/3/5 144/3/5 146/3/5
f 147/1/5 142/1/5 141/1/5
f 148/2/5 134/2/5 142/2/5
f 148/1/5 142/1/5 147/1/5
f 149/1/5 146/1/5 145/1/5
f 149/3/5 145/3/5 135/3/5
f 150/1/5 146/1/5 149/1/5
f 151/3/5 148/3/5 147/3/5
f 151/1/5 146/1/5 150/1/5
f 151/3/5 147/3/5 146/3/5
f 152/3/5 148/3/5 151/3/5
f 153/3/5 148/3/5 152/3/5
f 154/2/5 134/2/5 148/2/5
f 154/3/5 148/3/5 153/3/5
f 155/3/5 153/3/5 152/3/5
f 155/1/5 151/1/5 150/1/5
f 155/1/5 152/1/5 151/1/5
f 156/3/5 153/3/5 155/3/5
f 157/1/5 154/1/5 153/1/5
f 157/3/5 153/3/5 156/3/5
f 158/2/5 134/2/5 154/2/5
f 158/1/5 154/1/5 157/1/5
f 159/2/5 135/2/5 124/2/5
f 160/3/5 150/3/5 149/3/5
f 160/2/5 135/2/5 159/2/5
f 160/3/5 149/3/5 135/3/5
f 161/3/5 150/3/5 160/3/5
f 162/1/5 156/1/5 155/1/5
f 162/3/5 150/3/5 161/3/5
f 162/1/5 155/1/5 150/1/5
f 163/1/5 156/1/5 162/1/5
f 164/3/5 157/3/5 156/3/5
f 164/1/5 156/1/5 163/1/5
f 164/3/5 158/3/5 157/3/5
f 165/3/5 158/3/5 164/3/5
f 166/2/5 134/2/5 158/2/5
f 166/3/5 158/3/5 165/3/5
f 167/2/5 134/2/5 166/2/5
f 169/1/6 170/1/6 175/1/6
f 170/3/6 171/3/6 175/3/6
f 175/3/6 171/3/6 176/3/6
f 176/3/6 171/3/6 177/3/6
f 171/1/6 172/1/6 178/1/6
f 177/3/6 171/3/6 178/3/6
f 178/1/6 172/1/6 179/1/6
f 172/3/6 173/3/6 180/3/6
f 179/1/6 172/1/6 180/1/6
f 168/2/6 169/2/6 181/2/6
f 169/1/6 175/1/6 181/1/6
f 175/1/6 176/1/6 181/1/6
f 176/3/6 177/3/6 182/3/6
f 181/1/6 176/1/6 182/1/6
f 182/3/6 177/3/6 183/3/6
f 183/3/6 177/3/6 184/3/6
f 178/1/6 179/1/6 185/1/6
f 184/3/6 177/3/6 185/3/6
f 177/1/6 178/1/6 185/1/6
f 179/3/6 180/3/6 186/3/6
f 185/1/6 179/1/6 186/1/6
f 180/3/6 173/3/6 187/3/6
f 186/3/6 180/3/6 187/3/6
f 173/2/6 174/2/6 188/2/6
f 187/3/6 173/3/6 188/3/6
f 183/1/6 184/1/6 189/1/6
f 182/3/6 183/3/6 189/3/6
f 181/3/6 182/3/6 189/3/6
f 185/3/6 186/3/6 190/3/6
f 189/1/6 184/1/6 190/1/6
f 186/3/6 187/3/6 190/3/6
f 184/3/6 185/3/6 190/3/6
f 181/3/6 189/3/6 191/3/6
f 189/3/6 190/3/6 191/3/6
f 191/3/6 190/3/6 192/3/6
f 190/3/6 187/3/6 193/3/6
f 192/3/6 190/3/6 193/3/6
f 187/1/6 188/1/6 193/1/6
f 188/2/6 174/2/6 194/2/6
f 193/1/6 188/1/6 194/1/6
f 191/1/6 192/1/6 195/1/6
f 181/3/6 191/3/6 195/3/6
f 195/1/6 192/1/6 196/1/6
f 193/3/6 194/3/6 197/3/6
f 196/1/6 192/1/6 197/1/6
f 192/3/6 193/3/6 197/3/6
f 197/3/6 194/3/6 198/3/6
f 198/3/6 194/3/6 199/3/6
f 194/2/6 174/2/6 200/2/6
f 199/3/6 194/3/6 200/3/6
f 198/3/6 199/3/6 201/3/6
f 196/1/6 197/1/6 201/1/6
f 197/1/6 198/1/6 201/1/6
f 201/3/6 199/3/6 202/3/6
f 199/1/6 200/1/6 203/1/6
f 202/3/6 199/3/6 203/3/6
f 200/2/6 174/2/6 204/2/6
f 203/1/6 200/1/6 204/1/6
f 195/3/6 196/3/6 205/3/6
f 201/1/6 202/1/6 205/1/6
f 196/1/6 201/1/6 205/1/6
f 205/1/6 202/1/6 206/1/6
f 202/3/6 203/3/6 207/3/6
f 203/3/6 204/3/6 207/3/6
f 207/3/6 204/3/6 208/3/6
f 168/2/6 181/2/6 209/2/6
f 181/3/6 195/3/6 210/3/6
f 209/2/6 181/2/6 210/2/6
f 205/3/6 206/3/6 210/3/6
f 195/3/6 205/3/6 210/3/6
f 206/1/6 202/1/6 211/1/6
f 210/3/6 206/3/6 211/3/6
f 202/3/6 207/3/6 212/3/6
f 211/1/6 202/1/6 212/1/6
f 207/1/6 208/1/6 213/1/6
f 212/3/6 207/3/6 213/3/6
f 208/3/6 204/3/6 214/3/6
f 213/1/6 208/1/6 214/1/6
f 204/2/6 174/2/6 215/2/6
f 214/3/6 204/3/6 215/3/6
f 215/2/6 174/2/6 216/2/6
