# MagicaVoxel @ Ephtracy

# group
o 

# material
mtllib roady_cross_assets-2.mtl
usemtl palette

# normals
vn -1 0 0
vn 1 0 0
vn 0 0 1
vn 0 0 -1
vn 0 -1 0
vn 0 1 0

# texcoords
vt 0.0175781 0.5
vt 0.0449219 0.5
vt 0.373047 0.5
vt 0.958984 0.5
vt 0.986328 0.5
vt 0.994141 0.5

# verts
v -1.6 -1.4 0.7
v -1.6 -1.4 -0.7
v -1.6 -1.2 0.7
v -1.6 -1.2 -0.7
v -1.6 -0.8 0.3
v -1.6 -0.8 -0.3
v -1.6 -0.6 0.7
v -1.6 -0.6 0.3
v -1.6 -0.6 -0.3
v -1.6 -0.6 -0.7
v -1.2 -1.6 0.7
v -1.2 -1.6 0.6
v -1.2 -1.6 -0.6
v -1.2 -1.6 -0.7
v -1.2 -1.4 0.7
v -1.2 -1.4 0.6
v -1.2 -1.4 -0.6
v -1.2 -1.4 -0.7
v -1 -0.6 0.5
v -1 -0.6 0.3
v -1 -0.6 -0.3
v -1 -0.6 -0.5
v -1 -0.2 0.3
v -1 -0.2 -0.3
v -1 0 0.5
v -1 0 -0.5
v -0.4 0 0.3
v -0.4 0 -0.3
v -0.4 0.2 0.3
v -0.4 0.2 -0.3
v 0.2 -0.8 0.8
v 0.2 -0.8 0.7
v 0.2 -0.8 -0.7
v 0.2 -0.8 -0.8
v 0.2 -0.6 0.8
v 0.2 -0.6 0.7
v 0.2 -0.6 -0.7
v 0.2 -0.6 -0.8
v 0.6 -1.6 0.7
v 0.6 -1.6 0.6
v 0.6 -1.6 -0.6
v 0.6 -1.6 -0.7
v 0.6 -1.4 0.7
v 0.6 -1.4 0.6
v 0.6 -1.4 -0.6
v 0.6 -1.4 -0.7
v -0.6 -1.6 0.7
v -0.6 -1.6 0.6
v -0.6 -1.6 -0.6
v -0.6 -1.6 -0.7
v -0.6 -1.4 0.7
v -0.6 -1.4 0.6
v -0.6 -1.4 -0.6
v -0.6 -1.4 -0.7
v 0 0 0.3
v 0 0 -0.3
v 0 0.2 0.3
v 0 0.2 -0.3
v 0.6 -0.8 0.8
v 0.6 -0.8 0.7
v 0.6 -0.8 -0.7
v 0.6 -0.8 -0.8
v 0.6 -0.6 0.8
v 0.6 -0.6 0.7
v 0.6 -0.6 0.5
v 0.6 -0.6 0.3
v 0.6 -0.6 -0.3
v 0.6 -0.6 -0.5
v 0.6 -0.6 -0.7
v 0.6 -0.6 -0.8
v 0.6 -0.2 0.3
v 0.6 -0.2 -0.3
v 0.6 0 0.5
v 0.6 0 -0.5
v 1.2 -1.6 0.7
v 1.2 -1.6 0.6
v 1.2 -1.6 -0.6
v 1.2 -1.6 -0.7
v 1.2 -1.4 0.7
v 1.2 -1.4 0.6
v 1.2 -1.4 -0.6
v 1.2 -1.4 -0.7
v 1.8 -1.4 0.7
v 1.8 -1.4 -0.7
v 1.8 -1.2 0.7
v 1.8 -1.2 -0.7
v 1.8 -1 0.7
v 1.8 -1 0.5
v 1.8 -1 -0.5
v 1.8 -1 -0.7
v 1.8 -0.8 0.7
v 1.8 -0.8 0.5
v 1.8 -0.8 0.3
v 1.8 -0.8 -0.3
v 1.8 -0.8 -0.5
v 1.8 -0.8 -0.7
v 1.8 -0.6 0.7
v 1.8 -0.6 0.3
v 1.8 -0.6 -0.3
v 1.8 -0.6 -0.7
v 0.2 -0.8 0.8
v 0.2 -0.6 0.8
v 0.6 -0.8 0.8
v 0.6 -0.6 0.8
v -1.6 -1.4 0.7
v -1.6 -1.2 0.7
v -1.6 -0.6 0.7
v -1.2 -1.6 0.7
v -1.2 -1.4 0.7
v -1.2 -1.2 0.7
v -1.2 -1 0.7
v -1 -1.4 0.7
v -1 -1.2 0.7
v -1 -1 0.7
v -1 -0.8 0.7
v -0.8 -1.4 0.7
v -0.8 -1.2 0.7
v -0.6 -1.6 0.7
v -0.6 -1.4 0.7
v -0.6 -1.2 0.7
v -0.6 -1 0.7
v 0 -1 0.7
v 0 -0.8 0.7
v 0.2 -0.8 0.7
v 0.2 -0.6 0.7
v 0.6 -1.6 0.7
v 0.6 -1.4 0.7
v 0.6 -1.2 0.7
v 0.6 -1 0.7
v 0.6 -0.8 0.7
v 0.6 -0.6 0.7
v 0.8 -1.4 0.7
v 0.8 -1.2 0.7
v 1 -1.4 0.7
v 1 -1.2 0.7
v 1.2 -1.6 0.7
v 1.2 -1.4 0.7
v 1.2 -1.2 0.7
v 1.2 -1 0.7
v 1.6 -1 0.7
v 1.6 -0.8 0.7
v 1.8 -1.4 0.7
v 1.8 -1.2 0.7
v 1.8 -1 0.7
v 1.8 -0.8 0.7
v 1.8 -0.6 0.7
v -1 -0.6 0.5
v -1 0 0.5
v -0.8 -0.6 0.5
v -0.8 -0.2 0.5
v -0.6 -0.6 0.5
v -0.6 -0.2 0.5
v -0.4 -0.6 0.5
v -0.4 -0.2 0.5
v 0.4 -0.6 0.5
v 0.4 -0.2 0.5
v 0.6 -0.6 0.5
v 0.6 0 0.5
v -0.4 0 0.3
v -0.4 0.2 0.3
v -0.2 0 0.3
v -0.2 0.2 0.3
v 0 0 0.3
v 0 0.2 0.3
v -1.2 -1.6 -0.6
v -1.2 -1.4 -0.6
v -0.6 -1.6 -0.6
v -0.6 -1.4 -0.6
v 0.6 -1.6 -0.6
v 0.6 -1.4 -0.6
v 1.2 -1.6 -0.6
v 1.2 -1.4 -0.6
v -1.2 -1.6 0.6
v -1.2 -1.4 0.6
v -0.6 -1.6 0.6
v -0.6 -1.4 0.6
v 0.6 -1.6 0.6
v 0.6 -1.4 0.6
v 1.2 -1.6 0.6
v 1.2 -1.4 0.6
v -0.4 0 -0.3
v -0.4 0.2 -0.3
v -0.2 0 -0.3
v -0.2 0.2 -0.3
v 0 0 -0.3
v 0 0.2 -0.3
v -1 -0.6 -0.5
v -1 0 -0.5
v -0.8 -0.6 -0.5
v -0.8 -0.2 -0.5
v -0.6 -0.6 -0.5
v -0.6 -0.2 -0.5
v -0.4 -0.6 -0.5
v -0.4 -0.2 -0.5
v 0.4 -0.6 -0.5
v 0.4 -0.2 -0.5
v 0.6 -0.6 -0.5
v 0.6 0 -0.5
v -1.6 -1.4 -0.7
v -1.6 -1.2 -0.7
v -1.6 -0.6 -0.7
v -1.2 -1.6 -0.7
v -1.2 -1.4 -0.7
v -1.2 -1.2 -0.7
v -1.1 -1.2 -0.7
v -1.1 -1 -0.7
v -1 -1.4 -0.7
v -1 -1.2 -0.7
v -1 -1 -0.7
v -1 -0.8 -0.7
v -0.8 -1.4 -0.7
v -0.8 -1.2 -0.7
v -0.6 -1.6 -0.7
v -0.6 -1.4 -0.7
v -0.6 -1.2 -0.7
v -0.6 -1 -0.7
v 0 -1 -0.7
v 0 -0.8 -0.7
v 0.2 -0.8 -0.7
v 0.2 -0.6 -0.7
v 0.6 -1.6 -0.7
v 0.6 -1.4 -0.7
v 0.6 -1.2 -0.7
v 0.6 -1 -0.7
v 0.6 -0.8 -0.7
v 0.6 -0.6 -0.7
v 0.8 -1.4 -0.7
v 0.8 -1.2 -0.7
v 1 -1.4 -0.7
v 1 -1.2 -0.7
v 1.2 -1.6 -0.7
v 1.2 -1.4 -0.7
v 1.2 -1.2 -0.7
v 1.2 -1 -0.7
v 1.6 -1 -0.7
v 1.6 -0.8 -0.7
v 1.8 -1.4 -0.7
v 1.8 -1.2 -0.7
v 1.8 -1 -0.7
v 1.8 -0.8 -0.7
v 1.8 -0.6 -0.7
v 0.2 -0.8 -0.8
v 0.2 -0.6 -0.8
v 0.6 -0.8 -0.8
v 0.6 -0.6 -0.8
v -1.2 -1.6 0.7
v -0.6 -1.6 0.7
v 0.6 -1.6 0.7
v 1.2 -1.6 0.7
v -1.2 -1.6 0.6
v -0.6 -1.6 0.6
v 0.6 -1.6 0.6
v 1.2 -1.6 0.6
v -1.2 -1.6 -0.6
v -0.6 -1.6 -0.6
v 0.6 -1.6 -0.6
v 1.2 -1.6 -0.6
v -1.2 -1.6 -0.7
v -0.6 -1.6 -0.7
v 0.6 -1.6 -0.7
v 1.2 -1.6 -0.7
v -1.6 -1.4 0.7
v -1.2 -1.4 0.7
v -0.6 -1.4 0.7
v 0.6 -1.4 0.7
v 1.2 -1.4 0.7
v 1.8 -1.4 0.7
v -1.2 -1.4 0.6
v -0.6 -1.4 0.6
v 0.6 -1.4 0.6
v 1.2 -1.4 0.6
v -1.2 -1.4 -0.6
v -0.6 -1.4 -0.6
v 0.6 -1.4 -0.6
v 1.2 -1.4 -0.6
v -1.6 -1.4 -0.7
v -1.2 -1.4 -0.7
v -0.6 -1.4 -0.7
v 0.6 -1.4 -0.7
v 1.2 -1.4 -0.7
v 1.8 -1.4 -0.7
v 0.2 -0.8 0.8
v 0.6 -0.8 0.8
v 0.2 -0.8 0.7
v 0.6 -0.8 0.7
v 0.2 -0.8 -0.7
v 0.6 -0.8 -0.7
v 0.2 -0.8 -0.8
v 0.6 -0.8 -0.8
v 0.2 -0.6 0.8
v 0.6 -0.6 0.8
v -1.6 -0.6 0.7
v 0.2 -0.6 0.7
v 0.6 -0.6 0.7
v 1.8 -0.6 0.7
v -1 -0.6 0.5
v -0.8 -0.6 0.5
v -0.6 -0.6 0.5
v -0.4 -0.6 0.5
v 0.4 -0.6 0.5
v 0.6 -0.6 0.5
v -1.6 -0.6 0.3
v -1 -0.6 0.3
v 0.6 -0.6 0.3
v 1.8 -0.6 0.3
v -1.6 -0.6 -0.3
v -1 -0.6 -0.3
v 0.6 -0.6 -0.3
v 1.8 -0.6 -0.3
v -1 -0.6 -0.5
v -0.8 -0.6 -0.5
v -0.6 -0.6 -0.5
v -0.4 -0.6 -0.5
v 0.4 -0.6 -0.5
v 0.6 -0.6 -0.5
v -1.6 -0.6 -0.7
v 0.2 -0.6 -0.7
v 0.6 -0.6 -0.7
v 1.8 -0.6 -0.7
v 0.2 -0.6 -0.8
v 0.6 -0.6 -0.8
v -1 0 0.5
v 0.6 0 0.5
v -0.4 0 0.3
v -0.2 0 0.3
v 0 0 0.3
v -0.4 0 -0.3
v -0.2 0 -0.3
v 0 0 -0.3
v -1 0 -0.5
v 0.6 0 -0.5
v -0.4 0.2 0.3
v -0.2 0.2 0.3
v 0 0.2 0.3
v -0.4 0.2 -0.3
v -0.2 0.2 -0.3
v 0 0.2 -0.3

# faces
f 3/5/1 2/5/1 1/5/1
f 4/5/1 2/5/1 3/5/1
f 5/1/1 4/1/1 3/1/1
f 6/1/1 4/1/1 5/1/1
f 7/1/1 5/1/1 3/1/1
f 8/2/1 6/2/1 5/2/1
f 8/1/1 5/1/1 7/1/1
f 9/1/1 4/1/1 6/1/1
f 9/2/1 6/2/1 8/2/1
f 10/1/1 4/1/1 9/1/1
f 15/6/1 12/6/1 11/6/1
f 16/6/1 12/6/1 15/6/1
f 17/6/1 14/6/1 13/6/1
f 18/6/1 14/6/1 17/6/1
f 23/4/1 20/4/1 19/4/1
f 23/6/1 21/6/1 20/6/1
f 24/4/1 22/4/1 21/4/1
f 24/6/1 21/6/1 23/6/1
f 25/4/1 23/4/1 19/4/1
f 25/4/1 24/4/1 23/4/1
f 26/4/1 22/4/1 24/4/1
f 26/4/1 24/4/1 25/4/1
f 29/2/1 28/2/1 27/2/1
f 30/2/1 28/2/1 29/2/1
f 35/2/1 32/2/1 31/2/1
f 36/2/1 32/2/1 35/2/1
f 37/2/1 34/2/1 33/2/1
f 38/2/1 34/2/1 37/2/1
f 43/6/1 40/6/1 39/6/1
f 44/6/1 40/6/1 43/6/1
f 45/6/1 42/6/1 41/6/1
f 46/6/1 42/6/1 45/6/1
f 47/6/2 48/6/2 51/6/2
f 51/6/2 48/6/2 52/6/2
f 49/6/2 50/6/2 53/6/2
f 53/6/2 50/6/2 54/6/2
f 55/1/2 56/1/2 57/1/2
f 57/1/2 56/1/2 58/1/2
f 59/2/2 60/2/2 63/2/2
f 63/2/2 60/2/2 64/2/2
f 61/2/2 62/2/2 69/2/2
f 69/2/2 62/2/2 70/2/2
f 65/4/2 66/4/2 71/4/2
f 66/6/2 67/6/2 71/6/2
f 67/4/2 68/4/2 72/4/2
f 71/6/2 67/6/2 72/6/2
f 65/4/2 71/4/2 73/4/2
f 71/4/2 72/4/2 73/4/2
f 72/4/2 68/4/2 74/4/2
f 73/4/2 72/4/2 74/4/2
f 75/6/2 76/6/2 79/6/2
f 79/6/2 76/6/2 80/6/2
f 77/6/2 78/6/2 81/6/2
f 81/6/2 78/6/2 82/6/2
f 83/5/2 84/5/2 85/5/2
f 85/5/2 84/5/2 86/5/2
f 85/1/2 86/1/2 87/1/2
f 87/1/2 86/1/2 88/1/2
f 88/1/2 86/1/2 89/1/2
f 89/1/2 86/1/2 90/1/2
f 87/4/2 88/4/2 91/4/2
f 88/1/2 89/1/2 92/1/2
f 91/4/2 88/4/2 92/4/2
f 92/1/2 89/1/2 93/1/2
f 93/1/2 89/1/2 94/1/2
f 89/4/2 90/4/2 95/4/2
f 94/1/2 89/1/2 95/1/2
f 95/4/2 90/4/2 96/4/2
f 91/1/2 92/1/2 97/1/2
f 92/1/2 93/1/2 97/1/2
f 93/2/2 94/2/2 98/2/2
f 97/1/2 93/1/2 98/1/2
f 95/1/2 96/1/2 99/1/2
f 98/2/2 94/2/2 99/2/2
f 94/1/2 95/1/2 99/1/2
f 99/1/2 96/1/2 100/1/2
f 103/2/3 102/2/3 101/2/3
f 104/2/3 102/2/3 103/2/3
f 109/5/3 106/5/3 105/5/3
f 110/1/3 107/1/3 106/1/3
f 110/5/3 106/5/3 109/5/3
f 111/1/3 107/1/3 110/1/3
f 112/6/3 109/6/3 108/6/3
f 112/6/3 110/6/3 109/6/3
f 112/6/3 111/6/3 110/6/3
f 113/6/3 111/6/3 112/6/3
f 114/1/3 107/1/3 111/1/3
f 114/6/3 111/6/3 113/6/3
f 115/1/3 107/1/3 114/1/3
f 116/4/3 113/4/3 112/4/3
f 116/6/3 112/6/3 108/6/3
f 117/6/3 114/6/3 113/6/3
f 117/4/3 113/4/3 116/4/3
f 118/6/3 116/6/3 108/6/3
f 118/6/3 117/6/3 116/6/3
f 119/6/3 117/6/3 118/6/3
f 120/6/3 114/6/3 117/6/3
f 120/6/3 117/6/3 119/6/3
f 121/3/3 115/3/3 114/3/3
f 121/6/3 114/6/3 120/6/3
f 122/3/3 115/3/3 121/3/3
f 122/1/3 121/1/3 120/1/3
f 123/1/3 107/1/3 115/1/3
f 123/3/3 115/3/3 122/3/3
f 124/1/3 123/1/3 122/1/3
f 124/1/3 107/1/3 123/1/3
f 125/1/3 107/1/3 124/1/3
f 127/5/3 120/5/3 119/5/3
f 128/1/3 122/1/3 120/1/3
f 128/1/3 124/1/3 122/1/3
f 128/5/3 120/5/3 127/5/3
f 129/1/3 124/1/3 128/1/3
f 130/1/3 124/1/3 129/1/3
f 132/6/3 127/6/3 126/6/3
f 132/6/3 128/6/3 127/6/3
f 132/6/3 129/6/3 128/6/3
f 133/6/3 129/6/3 132/6/3
f 134/6/3 132/6/3 126/6/3
f 134/4/3 133/4/3 132/4/3
f 135/6/3 129/6/3 133/6/3
f 135/4/3 133/4/3 134/4/3
f 136/6/3 134/6/3 126/6/3
f 136/6/3 135/6/3 134/6/3
f 137/6/3 135/6/3 136/6/3
f 138/6/3 129/6/3 135/6/3
f 138/6/3 135/6/3 137/6/3
f 139/1/3 131/1/3 130/1/3
f 139/6/3 129/6/3 138/6/3
f 139/1/3 130/1/3 129/1/3
f 140/1/3 131/1/3 139/1/3
f 140/1/3 139/1/3 138/1/3
f 141/1/3 131/1/3 140/1/3
f 142/5/3 138/5/3 137/5/3
f 143/1/3 140/1/3 138/1/3
f 143/5/3 138/5/3 142/5/3
f 144/4/3 141/4/3 140/4/3
f 144/1/3 140/1/3 143/1/3
f 145/1/3 131/1/3 141/1/3
f 145/4/3 141/4/3 144/4/3
f 146/1/3 131/1/3 145/1/3
f 149/4/3 148/4/3 147/4/3
f 150/4/3 148/4/3 149/4/3
f 151/6/3 150/6/3 149/6/3
f 152/4/3 148/4/3 150/4/3
f 152/6/3 150/6/3 151/6/3
f 153/4/3 152/4/3 151/4/3
f 154/4/3 148/4/3 152/4/3
f 154/4/3 152/4/3 153/4/3
f 155/6/3 154/6/3 153/6/3
f 156/4/3 148/4/3 154/4/3
f 156/6/3 154/6/3 155/6/3
f 157/4/3 156/4/3 155/4/3
f 158/4/3 148/4/3 156/4/3
f 158/4/3 156/4/3 157/4/3
f 161/2/3 160/2/3 159/2/3
f 162/2/3 160/2/3 161/2/3
f 163/1/3 162/1/3 161/1/3
f 164/1/3 162/1/3 163/1/3
f 167/6/3 166/6/3 165/6/3
f 168/6/3 166/6/3 167/6/3
f 171/6/3 170/6/3 169/6/3
f 172/6/3 170/6/3 171/6/3
f 173/6/4 174/6/4 175/6/4
f 175/6/4 174/6/4 176/6/4
f 177/6/4 178/6/4 179/6/4
f 179/6/4 178/6/4 180/6/4
f 181/2/4 182/2/4 183/2/4
f 183/2/4 182/2/4 184/2/4
f 183/1/4 184/1/4 185/1/4
f 185/1/4 184/1/4 186/1/4
f 187/4/4 188/4/4 189/4/4
f 189/4/4 188/4/4 190/4/4
f 189/6/4 190/6/4 191/6/4
f 190/4/4 188/4/4 192/4/4
f 191/6/4 190/6/4 192/6/4
f 191/4/4 192/4/4 193/4/4
f 192/4/4 188/4/4 194/4/4
f 193/4/4 192/4/4 194/4/4
f 193/6/4 194/6/4 195/6/4
f 194/4/4 188/4/4 196/4/4
f 195/6/4 194/6/4 196/6/4
f 195/4/4 196/4/4 197/4/4
f 196/4/4 188/4/4 198/4/4
f 197/4/4 196/4/4 198/4/4
f 199/5/4 200/5/4 203/5/4
f 200/1/4 201/1/4 204/1/4
f 203/5/4 200/5/4 204/5/4
f 202/6/4 203/6/4 205/6/4
f 204/1/4 201/1/4 205/1/4
f 203/6/4 204/6/4 205/6/4
f 205/1/4 201/1/4 206/1/4
f 202/6/4 205/6/4 207/6/4
f 205/6/4 206/6/4 207/6/4
f 207/6/4 206/6/4 208/6/4
f 206/1/4 201/1/4 209/1/4
f 208/6/4 206/6/4 209/6/4
f 209/1/4 201/1/4 210/1/4
f 207/4/4 208/4/4 211/4/4
f 202/6/4 207/6/4 211/6/4
f 208/6/4 209/6/4 212/6/4
f 211/4/4 208/4/4 212/4/4
f 202/6/4 211/6/4 213/6/4
f 211/6/4 212/6/4 213/6/4
f 213/6/4 212/6/4 214/6/4
f 212/6/4 209/6/4 215/6/4
f 214/6/4 212/6/4 215/6/4
f 209/3/4 210/3/4 216/3/4
f 215/6/4 209/6/4 216/6/4
f 216/3/4 210/3/4 217/3/4
f 215/1/4 216/1/4 217/1/4
f 210/1/4 201/1/4 218/1/4
f 217/3/4 210/3/4 218/3/4
f 217/1/4 218/1/4 219/1/4
f 218/1/4 201/1/4 219/1/4
f 219/1/4 201/1/4 220/1/4
f 214/5/4 215/5/4 222/5/4
f 215/1/4 217/1/4 223/1/4
f 217/1/4 219/1/4 223/1/4
f 222/5/4 215/5/4 223/5/4
f 223/1/4 219/1/4 224/1/4
f 224/1/4 219/1/4 225/1/4
f 221/6/4 222/6/4 227/6/4
f 222/6/4 223/6/4 227/6/4
f 223/6/4 224/6/4 227/6/4
f 227/6/4 224/6/4 228/6/4
f 221/6/4 227/6/4 229/6/4
f 227/4/4 228/4/4 229/4/4
f 228/6/4 224/6/4 230/6/4
f 229/4/4 228/4/4 230/4/4
f 221/6/4 229/6/4 231/6/4
f 229/6/4 230/6/4 231/6/4
f 231/6/4 230/6/4 232/6/4
f 230/6/4 224/6/4 233/6/4
f 232/6/4 230/6/4 233/6/4
f 225/1/4 226/1/4 234/1/4
f 233/6/4 224/6/4 234/6/4
f 224/1/4 225/1/4 234/1/4
f 234/1/4 226/1/4 235/1/4
f 233/1/4 234/1/4 235/1/4
f 235/1/4 226/1/4 236/1/4
f 232/5/4 233/5/4 237/5/4
f 233/1/4 235/1/4 238/1/4
f 237/5/4 233/5/4 238/5/4
f 235/4/4 236/4/4 239/4/4
f 238/1/4 235/1/4 239/1/4
f 236/1/4 226/1/4 240/1/4
f 239/4/4 236/4/4 240/4/4
f 240/1/4 226/1/4 241/1/4
f 242/2/4 243/2/4 244/2/4
f 244/2/4 243/2/4 245/2/4
f 250/6/5 247/6/5 246/6/5
f 251/6/5 247/6/5 250/6/5
f 252/6/5 249/6/5 248/6/5
f 253/6/5 249/6/5 252/6/5
f 258/6/5 255/6/5 254/6/5
f 259/6/5 255/6/5 258/6/5
f 260/6/5 257/6/5 256/6/5
f 261/6/5 257/6/5 260/6/5
f 268/5/5 263/5/5 262/5/5
f 269/5/5 265/5/5 264/5/5
f 270/5/5 265/5/5 269/5/5
f 271/5/5 267/5/5 266/5/5
f 272/5/5 270/5/5 269/5/5
f 272/5/5 271/5/5 270/5/5
f 272/5/5 268/5/5 262/5/5
f 272/5/5 269/5/5 268/5/5
f 273/5/5 271/5/5 272/5/5
f 274/5/5 271/5/5 273/5/5
f 275/5/5 267/5/5 271/5/5
f 275/5/5 271/5/5 274/5/5
f 276/5/5 272/5/5 262/5/5
f 277/5/5 272/5/5 276/5/5
f 278/5/5 274/5/5 273/5/5
f 279/5/5 274/5/5 278/5/5
f 280/5/5 267/5/5 275/5/5
f 281/5/5 267/5/5 280/5/5
f 284/2/5 283/2/5 282/2/5
f 285/2/5 283/2/5 284/2/5
f 288/2/5 287/2/5 286/2/5
f 289/2/5 287/2/5 288/2/5
f 290/2/6 291/2/6 293/2/6
f 293/2/6 291/2/6 294/2/6
f 292/1/6 293/1/6 296/1/6
f 294/1/6 295/1/6 296/1/6
f 293/1/6 294/1/6 296/1/6
f 296/1/6 295/1/6 297/1/6
f 297/1/6 295/1/6 298/1/6
f 298/1/6 295/1/6 299/1/6
f 299/1/6 295/1/6 300/1/6
f 300/1/6 295/1/6 301/1/6
f 292/1/6 296/1/6 302/1/6
f 302/1/6 296/1/6 303/1/6
f 301/1/6 295/1/6 304/1/6
f 304/1/6 295/1/6 305/1/6
f 302/2/6 303/2/6 306/2/6
f 306/2/6 303/2/6 307/2/6
f 304/2/6 305/2/6 308/2/6
f 308/2/6 305/2/6 309/2/6
f 306/1/6 307/1/6 310/1/6
f 308/1/6 309/1/6 315/1/6
f 313/1/6 314/1/6 316/1/6
f 314/1/6 315/1/6 316/1/6
f 306/1/6 310/1/6 316/1/6
f 310/1/6 311/1/6 316/1/6
f 312/1/6 313/1/6 316/1/6
f 311/1/6 312/1/6 316/1/6
f 316/1/6 315/1/6 317/1/6
f 315/1/6 309/1/6 318/1/6
f 317/1/6 315/1/6 318/1/6
f 318/1/6 309/1/6 319/1/6
f 317/2/6 318/2/6 320/2/6
f 320/2/6 318/2/6 321/2/6
f 322/4/6 323/4/6 324/4/6
f 324/4/6 323/4/6 325/4/6
f 325/4/6 323/4/6 326/4/6
f 322/4/6 324/4/6 327/4/6
f 326/4/6 323/4/6 329/4/6
f 327/4/6 328/4/6 330/4/6
f 328/4/6 329/4/6 330/4/6
f 322/4/6 327/4/6 330/4/6
f 329/4/6 323/4/6 331/4/6
f 330/4/6 329/4/6 331/4/6
f 332/2/6 333/2/6 335/2/6
f 333/1/6 334/1/6 336/1/6
f 335/2/6 333/2/6 336/2/6
f 336/1/6 334/1/6 337/1/6
