# MagicaVoxel @ Ephtracy

# group
o 

# material
mtllib penguin_evil.mtl
usemtl palette

# normals
vn -1 0 0
vn 1 0 0
vn 0 0 1
vn 0 0 -1
vn 0 -1 0
vn 0 1 0

# texcoords
vt 0.00195312 0.5
vt 0.00585938 0.5
vt 0.00976562 0.5
vt 0.0136719 0.5
vt 0.0175781 0.5
vt 0.0644531 0.5
vt 0.841797 0.5
vt 0.958984 0.5
vt 0.990234 0.5
vt 0.994141 0.5

# verts
v -1.6 3.7 -0.7
v -1.6 3.7 -1.1
v -1.6 4 -0.7
v -1.6 4 -1.1
v -1.5 2.4 0.9
v -1.5 2.4 -1.6
v -1.5 3 -0.3
v -1.5 3 -1.6
v -1.5 3.1 -0.2
v -1.5 3.1 -0.3
v -1.5 3.5 -0.5
v -1.5 3.5 -1.1
v -1.5 3.7 -0.7
v -1.5 3.7 -1.1
v -1.5 4 -0.5
v -1.5 4 -0.7
v -1.5 4 -1.1
v -1.5 4.3 -0.3
v -1.5 4.3 -1.6
v -1.5 4.4 -0.2
v -1.5 4.4 -0.3
v -1.5 4.7 0.9
v -1.5 4.7 -1.6
v -1.4 0 2
v -1.4 0 0.9
v -1.4 0 -1.5
v -1.4 0 -2.1
v -1.4 0.3 -1.5
v -1.4 0.3 -2.1
v -1.4 1.2 2
v -1.4 1.2 1.5
v -1.4 2.4 1.5
v -1.4 2.4 1
v -1.4 2.4 0.9
v -1.4 2.4 -1.5
v -1.4 4.6 1
v -1.4 4.6 0.9
v -1.2 4.7 0.6
v -1.2 4.7 -1.3
v -1.2 4.9 0.6
v -1.2 4.9 -1.3
v -1 4.9 0.4
v -1 4.9 -1.1
v -1 5.2 0.4
v -1 5.2 -1.1
v -0.8 5.2 0.2
v -0.8 5.2 -0.9
v -0.8 5.4 0.2
v -0.8 5.4 -0.9
v -0.7 3.1 -1.6
v -0.7 3.1 -1.7
v -0.7 3.7 -1.6
v -0.7 3.7 -1.7
v -0.6 5.4 -2.38419e-07
v -0.6 5.4 -0.3
v -0.6 5.4 -0.4
v -0.6 5.4 -0.7
v -0.6 5.6 -2.38419e-07
v -0.6 5.6 -0.3
v -0.6 5.6 -0.4
v -0.6 5.6 -0.7
v -0.5 3.2 -1.7
v -0.5 3.2 -2.5
v -0.5 3.6 -1.7
v -0.5 3.6 -2.5
v -0.4 5.6 -0.1
v -0.4 5.6 -0.3
v -0.4 5.6 -0.4
v -0.4 5.6 -0.6
v -0.4 6 -0.1
v -0.4 6 -0.3
v -0.4 6 -0.4
v -0.4 6 -0.6
v 0.4 0 -1.5
v 0.4 0 -2.1
v 0.4 0.3 -1.5
v 0.4 0.3 -2.1
v -0.3 0 -1.5
v -0.3 0 -2.1
v -0.3 0.3 -1.5
v -0.3 0.3 -2.1
v 0.5 3.2 -1.7
v 0.5 3.2 -2.5
v 0.5 3.6 -1.7
v 0.5 3.6 -2.5
v 0.5 5.6 -0.1
v 0.5 5.6 -0.3
v 0.5 5.6 -0.4
v 0.5 5.6 -0.6
v 0.5 6 -0.1
v 0.5 6 -0.3
v 0.5 6 -0.4
v 0.5 6 -0.6
v 0.7 3.1 -1.6
v 0.7 3.1 -1.7
v 0.7 3.7 -1.6
v 0.7 3.7 -1.7
v 0.7 5.4 -2.38419e-07
v 0.7 5.4 -0.3
v 0.7 5.4 -0.4
v 0.7 5.4 -0.7
v 0.7 5.6 -2.38419e-07
v 0.7 5.6 -0.3
v 0.7 5.6 -0.4
v 0.7 5.6 -0.7
v 0.9 5.2 0.2
v 0.9 5.2 -0.9
v 0.9 5.4 0.2
v 0.9 5.4 -0.9
v 1.1 4.9 0.4
v 1.1 4.9 -1.1
v 1.1 5.2 0.4
v 1.1 5.2 -1.1
v 1.3 4.7 0.6
v 1.3 4.7 -1.3
v 1.3 4.9 0.6
v 1.3 4.9 -1.3
v 1.5 0 2
v 1.5 0 0.9
v 1.5 0 -1.5
v 1.5 0 -2.1
v 1.5 0.3 -1.5
v 1.5 0.3 -2.1
v 1.5 1.2 2
v 1.5 1.2 1.5
v 1.5 2.4 1.5
v 1.5 2.4 1
v 1.5 2.4 0.9
v 1.5 2.4 -1.5
v 1.5 4.6 1
v 1.5 4.6 0.9
v 1.6 2.4 0.9
v 1.6 2.4 -1.6
v 1.6 3 -0.3
v 1.6 3 -1.6
v 1.6 3.5 -0.5
v 1.6 3.5 -1.1
v 1.6 3.7 -0.7
v 1.6 3.7 -1.1
v 1.6 4 -0.5
v 1.6 4 -0.7
v 1.6 4 -1.1
v 1.6 4.3 -0.3
v 1.6 4.3 -1.6
v 1.6 4.7 0.9
v 1.6 4.7 -1.6
v 1.7 3.7 -0.7
v 1.7 3.7 -1.1
v 1.7 4 -0.7
v 1.7 4 -1.1
v -1.4 0 2
v -1.4 1.2 2
v 1.5 0 2
v 1.5 1.2 2
v -1.4 1.2 1.5
v -1.4 2.4 1.5
v 1.5 1.2 1.5
v 1.5 2.4 1.5
v -1.4 2.4 1
v -1.4 4.6 1
v 1.5 2.4 1
v 1.5 4.6 1
v -1.5 2.4 0.9
v -1.5 4.7 0.9
v -1.4 2.4 0.9
v -1.4 4.6 0.9
v 1.5 2.4 0.9
v 1.5 4.6 0.9
v 1.6 2.4 0.9
v 1.6 4.7 0.9
v -1.2 4.7 0.6
v -1.2 4.9 0.6
v 1.3 4.7 0.6
v 1.3 4.9 0.6
v -1 4.9 0.4
v -1 5.2 0.4
v 1.1 4.9 0.4
v 1.1 5.2 0.4
v -0.8 5.2 0.2
v -0.8 5.4 0.2
v 0.9 5.2 0.2
v 0.9 5.4 0.2
v -0.6 5.4 -2.38419e-07
v -0.6 5.6 -2.38419e-07
v 0.7 5.4 -2.38419e-07
v 0.7 5.6 -2.38419e-07
v -0.4 5.6 -0.1
v -0.4 6 -0.1
v 0 5.6 -0.1
v 0 6 -0.1
v 0.1 5.6 -0.1
v 0.1 6 -0.1
v 0.5 5.6 -0.1
v 0.5 6 -0.1
v -1.6 3.7 -0.7
v -1.6 4 -0.7
v -1.5 3.7 -0.7
v -1.5 4 -0.7
v 1.6 3.7 -0.7
v 1.6 4 -0.7
v 1.7 3.7 -0.7
v 1.7 4 -0.7
v -0.4 5.6 -0.6
v -0.4 6 -0.6
v 0 5.6 -0.6
v 0 6 -0.6
v 0.1 5.6 -0.6
v 0.1 6 -0.6
v 0.5 5.6 -0.6
v 0.5 6 -0.6
v -0.6 5.4 -0.7
v -0.6 5.6 -0.7
v 0.7 5.4 -0.7
v 0.7 5.6 -0.7
v -0.8 5.2 -0.9
v -0.8 5.4 -0.9
v 0.9 5.2 -0.9
v 0.9 5.4 -0.9
v -1.6 3.7 -1.1
v -1.6 4 -1.1
v -1.5 3.7 -1.1
v -1.5 4 -1.1
v -1 4.9 -1.1
v -1 5.2 -1.1
v 1.1 4.9 -1.1
v 1.1 5.2 -1.1
v 1.6 3.7 -1.1
v 1.6 4 -1.1
v 1.7 3.7 -1.1
v 1.7 4 -1.1
v -1.2 4.7 -1.3
v -1.2 4.9 -1.3
v 1.3 4.7 -1.3
v 1.3 4.9 -1.3
v -1.4 0.3 -1.5
v -1.4 2.4 -1.5
v -0.3 0 -1.5
v -0.3 0.3 -1.5
v 0.4 0 -1.5
v 0.4 0.3 -1.5
v 1.5 0.3 -1.5
v 1.5 2.4 -1.5
v -1.5 2.4 -1.6
v -1.5 3 -1.6
v -1.5 4.3 -1.6
v -1.5 4.7 -1.6
v -1.3 3 -1.6
v -1.3 4.3 -1.6
v -0.7 3.1 -1.6
v -0.7 3.7 -1.6
v 0.7 3.1 -1.6
v 0.7 3.7 -1.6
v 1.4 3 -1.6
v 1.4 4.3 -1.6
v 1.6 2.4 -1.6
v 1.6 3 -1.6
v 1.6 4.3 -1.6
v 1.6 4.7 -1.6
v -0.7 3.1 -1.7
v -0.7 3.7 -1.7
v -0.5 3.2 -1.7
v -0.5 3.6 -1.7
v 0.5 3.2 -1.7
v 0.5 3.6 -1.7
v 0.7 3.1 -1.7
v 0.7 3.7 -1.7
v -1.4 0 -2.1
v -1.4 0.3 -2.1
v -0.3 0 -2.1
v -0.3 0.3 -2.1
v 0.4 0 -2.1
v 0.4 0.3 -2.1
v 1.5 0 -2.1
v 1.5 0.3 -2.1
v -0.5 3.2 -2.5
v -0.5 3.6 -2.5
v 0.5 3.2 -2.5
v 0.5 3.6 -2.5
v -1.4 0 2
v 1.5 0 2
v -1.4 0 0.9
v 1.5 0 0.9
v -1.4 0 -1.5
v -0.3 0 -1.5
v 0.4 0 -1.5
v 1.5 0 -1.5
v -1.4 0 -2.1
v -0.3 0 -2.1
v 0.4 0 -2.1
v 1.5 0 -2.1
v -1.5 2.4 0.9
v -1.4 2.4 0.9
v 1.5 2.4 0.9
v 1.6 2.4 0.9
v -1.4 2.4 -1.5
v 1.5 2.4 -1.5
v -1.5 2.4 -1.6
v 1.6 2.4 -1.6
v -0.7 3.1 -1.6
v 0.7 3.1 -1.6
v -0.7 3.1 -1.7
v 0.7 3.1 -1.7
v -0.5 3.2 -1.7
v 0.5 3.2 -1.7
v -0.5 3.2 -2.5
v 0.5 3.2 -2.5
v -1.6 3.7 -0.7
v -1.5 3.7 -0.7
v 1.6 3.7 -0.7
v 1.7 3.7 -0.7
v -1.6 3.7 -1.1
v -1.5 3.7 -1.1
v 1.6 3.7 -1.1
v 1.7 3.7 -1.1
v -1.4 0.3 -1.5
v -0.3 0.3 -1.5
v 0.4 0.3 -1.5
v 1.5 0.3 -1.5
v -1.4 0.3 -2.1
v -0.3 0.3 -2.1
v 0.4 0.3 -2.1
v 1.5 0.3 -2.1
v -1.4 1.2 2
v 1.5 1.2 2
v -1.4 1.2 1.5
v 1.5 1.2 1.5
v -1.4 2.4 1.5
v 1.5 2.4 1.5
v -1.4 2.4 1
v 1.5 2.4 1
v -0.5 3.6 -1.7
v 0.5 3.6 -1.7
v -0.5 3.6 -2.5
v 0.5 3.6 -2.5
v -0.7 3.7 -1.6
v 0.7 3.7 -1.6
v -0.7 3.7 -1.7
v 0.7 3.7 -1.7
v -1.6 4 -0.7
v -1.5 4 -0.7
v 1.6 4 -0.7
v 1.7 4 -0.7
v -1.6 4 -1.1
v -1.5 4 -1.1
v 1.6 4 -1.1
v 1.7 4 -1.1
v -1.4 4.6 1
v 1.5 4.6 1
v -1.4 4.6 0.9
v 1.5 4.6 0.9
v -1.5 4.7 0.9
v 1.6 4.7 0.9
v -1.4 4.7 0.8
v 1.5 4.7 0.8
v -1.2 4.7 0.6
v 1.3 4.7 0.6
v -1.2 4.7 -1.3
v 1.3 4.7 -1.3
v -1.4 4.7 -1.5
v 1.5 4.7 -1.5
v -1.5 4.7 -1.6
v 1.6 4.7 -1.6
v -1.2 4.9 0.6
v 1.3 4.9 0.6
v -1 4.9 0.4
v 1.1 4.9 0.4
v -1 4.9 -1.1
v 1.1 4.9 -1.1
v -1.2 4.9 -1.3
v 1.3 4.9 -1.3
v -1 5.2 0.4
v 1.1 5.2 0.4
v -0.8 5.2 0.2
v 0.9 5.2 0.2
v -0.8 5.2 -0.9
v 0.9 5.2 -0.9
v -1 5.2 -1.1
v 1.1 5.2 -1.1
v -0.8 5.4 0.2
v 0.9 5.4 0.2
v -0.6 5.4 -2.38419e-07
v 0.7 5.4 -2.38419e-07
v -0.6 5.4 -0.3
v 0.7 5.4 -0.3
v -0.6 5.4 -0.4
v 0.7 5.4 -0.4
v -0.6 5.4 -0.7
v 0.7 5.4 -0.7
v -0.8 5.4 -0.9
v 0.9 5.4 -0.9
v -0.6 5.6 -2.38419e-07
v 0.7 5.6 -2.38419e-07
v -0.4 5.6 -0.1
v 0 5.6 -0.1
v 0.1 5.6 -0.1
v 0.5 5.6 -0.1
v -0.6 5.6 -0.3
v -0.4 5.6 -0.3
v 0.5 5.6 -0.3
v 0.7 5.6 -0.3
v -0.6 5.6 -0.4
v -0.4 5.6 -0.4
v 0.5 5.6 -0.4
v 0.7 5.6 -0.4
v -0.4 5.6 -0.6
v 0 5.6 -0.6
v 0.1 5.6 -0.6
v 0.5 5.6 -0.6
v -0.6 5.6 -0.7
v 0.7 5.6 -0.7
v -0.4 6 -0.1
v 0 6 -0.1
v 0.1 6 -0.1
v 0.5 6 -0.1
v -0.4 6 -0.3
v 0 6 -0.3
v 0.1 6 -0.3
v 0.5 6 -0.3
v -0.4 6 -0.4
v 0 6 -0.4
v 0.1 6 -0.4
v 0.5 6 -0.4
v -0.4 6 -0.6
v 0 6 -0.6
v 0.1 6 -0.6
v 0.5 6 -0.6

# faces
f 3/7/1 2/7/1 1/7/1
f 4/7/1 2/7/1 3/7/1
f 7/9/1 6/9/1 5/9/1
f 8/9/1 6/9/1 7/9/1
f 9/9/1 7/9/1 5/9/1
f 10/1/1 8/1/1 7/1/1
f 10/9/1 7/9/1 9/9/1
f 11/1/1 8/1/1 10/1/1
f 12/1/1 8/1/1 11/1/1
f 13/10/1 12/10/1 11/10/1
f 14/1/1 8/1/1 12/1/1
f 14/10/1 12/10/1 13/10/1
f 15/1/1 11/1/1 10/1/1
f 15/10/1 13/10/1 11/10/1
f 16/10/1 13/10/1 15/10/1
f 17/1/1 8/1/1 14/1/1
f 18/10/1 10/10/1 9/10/1
f 18/1/1 17/1/1 16/1/1
f 18/1/1 16/1/1 15/1/1
f 18/1/1 15/1/1 10/1/1
f 19/1/1 8/1/1 17/1/1
f 19/1/1 17/1/1 18/1/1
f 20/9/1 9/9/1 5/9/1
f 20/10/1 18/10/1 9/10/1
f 21/9/1 19/9/1 18/9/1
f 21/10/1 18/10/1 20/10/1
f 22/9/1 20/9/1 5/9/1
f 22/9/1 21/9/1 20/9/1
f 23/9/1 19/9/1 21/9/1
f 23/9/1 21/9/1 22/9/1
f 28/8/1 26/8/1 25/8/1
f 28/6/1 27/6/1 26/6/1
f 29/6/1 27/6/1 28/6/1
f 30/9/1 25/9/1 24/9/1
f 31/9/1 25/9/1 30/9/1
f 32/9/1 25/9/1 31/9/1
f 33/9/1 25/9/1 32/9/1
f 34/8/1 28/8/1 25/8/1
f 34/9/1 25/9/1 33/9/1
f 35/8/1 28/8/1 34/8/1
f 36/9/1 34/9/1 33/9/1
f 37/9/1 34/9/1 36/9/1
f 40/4/1 39/4/1 38/4/1
f 41/4/1 39/4/1 40/4/1
f 44/3/1 43/3/1 42/3/1
f 45/3/1 43/3/1 44/3/1
f 48/2/1 47/2/1 46/2/1
f 49/2/1 47/2/1 48/2/1
f 52/6/1 51/6/1 50/6/1
f 53/6/1 51/6/1 52/6/1
f 58/1/1 55/1/1 54/1/1
f 59/7/1 56/7/1 55/7/1
f 59/1/1 55/1/1 58/1/1
f 60/1/1 57/1/1 56/1/1
f 60/7/1 56/7/1 59/7/1
f 61/1/1 57/1/1 60/1/1
f 64/6/1 63/6/1 62/6/1
f 65/6/1 63/6/1 64/6/1
f 70/1/1 67/1/1 66/1/1
f 71/7/1 68/7/1 67/7/1
f 71/1/1 67/1/1 70/1/1
f 72/1/1 69/1/1 68/1/1
f 72/7/1 68/7/1 71/7/1
f 73/1/1 69/1/1 72/1/1
f 76/6/1 75/6/1 74/6/1
f 77/6/1 75/6/1 76/6/1
f 78/6/2 79/6/2 80/6/2
f 80/6/2 79/6/2 81/6/2
f 82/6/2 83/6/2 84/6/2
f 84/6/2 83/6/2 85/6/2
f 86/1/2 87/1/2 90/1/2
f 87/7/2 88/7/2 91/7/2
f 90/1/2 87/1/2 91/1/2
f 88/1/2 89/1/2 92/1/2
f 91/7/2 88/7/2 92/7/2
f 92/1/2 89/1/2 93/1/2
f 94/6/2 95/6/2 96/6/2
f 96/6/2 95/6/2 97/6/2
f 98/1/2 99/1/2 102/1/2
f 99/7/2 100/7/2 103/7/2
f 102/1/2 99/1/2 103/1/2
f 100/1/2 101/1/2 104/1/2
f 103/7/2 100/7/2 104/7/2
f 104/1/2 101/1/2 105/1/2
f 106/2/2 107/2/2 108/2/2
f 108/2/2 107/2/2 109/2/2
f 110/3/2 111/3/2 112/3/2
f 112/3/2 111/3/2 113/3/2
f 114/4/2 115/4/2 116/4/2
f 116/4/2 115/4/2 117/4/2
f 119/8/2 120/8/2 122/8/2
f 120/6/2 121/6/2 122/6/2
f 122/6/2 121/6/2 123/6/2
f 118/9/2 119/9/2 124/9/2
f 124/9/2 119/9/2 125/9/2
f 125/9/2 119/9/2 126/9/2
f 126/9/2 119/9/2 127/9/2
f 119/8/2 122/8/2 128/8/2
f 127/9/2 119/9/2 128/9/2
f 128/8/2 122/8/2 129/8/2
f 127/9/2 128/9/2 130/9/2
f 130/9/2 128/9/2 131/9/2
f 132/9/2 133/9/2 134/9/2
f 134/9/2 133/9/2 135/9/2
f 134/1/2 135/1/2 136/1/2
f 136/1/2 135/1/2 137/1/2
f 136/10/2 137/10/2 138/10/2
f 137/1/2 135/1/2 139/1/2
f 138/10/2 137/10/2 139/10/2
f 134/1/2 136/1/2 140/1/2
f 136/10/2 138/10/2 140/10/2
f 140/10/2 138/10/2 141/10/2
f 139/1/2 135/1/2 142/1/2
f 132/9/2 134/9/2 143/9/2
f 141/1/2 142/1/2 143/1/2
f 140/1/2 141/1/2 143/1/2
f 134/1/2 140/1/2 143/1/2
f 142/1/2 135/1/2 144/1/2
f 143/1/2 142/1/2 144/1/2
f 132/9/2 143/9/2 145/9/2
f 143/9/2 144/9/2 145/9/2
f 145/9/2 144/9/2 146/9/2
f 147/7/2 148/7/2 149/7/2
f 149/7/2 148/7/2 150/7/2
f 153/9/3 152/9/3 151/9/3
f 154/9/3 152/9/3 153/9/3
f 157/9/3 156/9/3 155/9/3
f 158/9/3 156/9/3 157/9/3
f 161/9/3 160/9/3 159/9/3
f 162/9/3 160/9/3 161/9/3
f 165/9/3 164/9/3 163/9/3
f 166/9/3 164/9/3 165/9/3
f 168/9/3 164/9/3 166/9/3
f 169/9/3 168/9/3 167/9/3
f 170/9/3 164/9/3 168/9/3
f 170/9/3 168/9/3 169/9/3
f 173/4/3 172/4/3 171/4/3
f 174/4/3 172/4/3 173/4/3
f 177/3/3 176/3/3 175/3/3
f 178/3/3 176/3/3 177/3/3
f 181/2/3 180/2/3 179/2/3
f 182/2/3 180/2/3 181/2/3
f 185/1/3 184/1/3 183/1/3
f 186/1/3 184/1/3 185/1/3
f 189/1/3 188/1/3 187/1/3
f 190/1/3 188/1/3 189/1/3
f 191/7/3 190/7/3 189/7/3
f 192/7/3 190/7/3 191/7/3
f 193/1/3 192/1/3 191/1/3
f 194/1/3 192/1/3 193/1/3
f 197/7/3 196/7/3 195/7/3
f 198/7/3 196/7/3 197/7/3
f 201/7/3 200/7/3 199/7/3
f 202/7/3 200/7/3 201/7/3
f 203/1/4 204/1/4 205/1/4
f 205/1/4 204/1/4 206/1/4
f 205/7/4 206/7/4 207/7/4
f 207/7/4 206/7/4 208/7/4
f 207/1/4 208/1/4 209/1/4
f 209/1/4 208/1/4 210/1/4
f 211/1/4 212/1/4 213/1/4
f 213/1/4 212/1/4 214/1/4
f 215/2/4 216/2/4 217/2/4
f 217/2/4 216/2/4 218/2/4
f 219/7/4 220/7/4 221/7/4
f 221/7/4 220/7/4 222/7/4
f 223/3/4 224/3/4 225/3/4
f 225/3/4 224/3/4 226/3/4
f 227/7/4 228/7/4 229/7/4
f 229/7/4 228/7/4 230/7/4
f 231/4/4 232/4/4 233/4/4
f 233/4/4 232/4/4 234/4/4
f 235/8/4 236/8/4 238/8/4
f 237/8/4 238/8/4 239/8/4
f 238/8/4 236/8/4 240/8/4
f 239/8/4 238/8/4 240/8/4
f 240/8/4 236/8/4 241/8/4
f 241/8/4 236/8/4 242/8/4
f 243/9/4 244/9/4 247/9/4
f 244/1/4 245/1/4 247/1/4
f 245/9/4 246/9/4 248/9/4
f 247/1/4 245/1/4 248/1/4
f 247/9/4 248/9/4 249/9/4
f 249/9/4 248/9/4 250/9/4
f 247/9/4 249/9/4 251/9/4
f 250/9/4 248/9/4 252/9/4
f 243/9/4 247/9/4 253/9/4
f 251/9/4 252/9/4 253/9/4
f 247/9/4 251/9/4 253/9/4
f 252/9/4 248/9/4 254/9/4
f 253/9/4 252/9/4 254/9/4
f 248/9/4 246/9/4 254/9/4
f 243/9/4 253/9/4 255/9/4
f 253/1/4 254/1/4 256/1/4
f 255/9/4 253/9/4 256/9/4
f 254/9/4 246/9/4 257/9/4
f 256/1/4 254/1/4 257/1/4
f 257/9/4 246/9/4 258/9/4
f 259/6/4 260/6/4 261/6/4
f 261/6/4 260/6/4 262/6/4
f 259/6/4 261/6/4 263/6/4
f 262/6/4 260/6/4 264/6/4
f 259/6/4 263/6/4 265/6/4
f 263/6/4 264/6/4 265/6/4
f 264/6/4 260/6/4 266/6/4
f 265/6/4 264/6/4 266/6/4
f 267/6/4 268/6/4 269/6/4
f 269/6/4 268/6/4 270/6/4
f 271/6/4 272/6/4 273/6/4
f 273/6/4 272/6/4 274/6/4
f 275/6/4 276/6/4 277/6/4
f 277/6/4 276/6/4 278/6/4
f 281/9/5 280/9/5 279/9/5
f 282/9/5 280/9/5 281/9/5
f 283/8/5 282/8/5 281/8/5
f 284/8/5 282/8/5 283/8/5
f 285/8/5 282/8/5 284/8/5
f 286/8/5 282/8/5 285/8/5
f 287/6/5 284/6/5 283/6/5
f 288/6/5 284/6/5 287/6/5
f 289/6/5 286/6/5 285/6/5
f 290/6/5 286/6/5 289/6/5
f 295/9/5 292/9/5 291/9/5
f 296/9/5 294/9/5 293/9/5
f 297/9/5 295/9/5 291/9/5
f 297/9/5 296/9/5 295/9/5
f 298/9/5 294/9/5 296/9/5
f 298/9/5 296/9/5 297/9/5
f 301/6/5 300/6/5 299/6/5
f 302/6/5 300/6/5 301/6/5
f 305/6/5 304/6/5 303/6/5
f 306/6/5 304/6/5 305/6/5
f 311/7/5 308/7/5 307/7/5
f 312/7/5 308/7/5 311/7/5
f 313/7/5 310/7/5 309/7/5
f 314/7/5 310/7/5 313/7/5
f 315/6/6 316/6/6 319/6/6
f 319/6/6 316/6/6 320/6/6
f 317/6/6 318/6/6 321/6/6
f 321/6/6 318/6/6 322/6/6
f 323/9/6 324/9/6 325/9/6
f 325/9/6 324/9/6 326/9/6
f 327/9/6 328/9/6 329/9/6
f 329/9/6 328/9/6 330/9/6
f 331/6/6 332/6/6 333/6/6
f 333/6/6 332/6/6 334/6/6
f 335/6/6 336/6/6 337/6/6
f 337/6/6 336/6/6 338/6/6
f 339/7/6 340/7/6 343/7/6
f 343/7/6 340/7/6 344/7/6
f 341/7/6 342/7/6 345/7/6
f 345/7/6 342/7/6 346/7/6
f 347/9/6 348/9/6 349/9/6
f 349/9/6 348/9/6 350/9/6
f 351/9/6 352/9/6 353/9/6
f 353/9/6 352/9/6 354/9/6
f 353/5/6 354/5/6 355/5/6
f 355/5/6 354/5/6 356/5/6
f 353/5/6 355/5/6 357/5/6
f 356/5/6 354/5/6 358/5/6
f 351/9/6 353/9/6 359/9/6
f 357/5/6 358/5/6 359/5/6
f 353/5/6 357/5/6 359/5/6
f 358/5/6 354/5/6 360/5/6
f 359/5/6 358/5/6 360/5/6
f 354/9/6 352/9/6 360/9/6
f 351/9/6 359/9/6 361/9/6
f 359/9/6 360/9/6 361/9/6
f 360/9/6 352/9/6 362/9/6
f 361/9/6 360/9/6 362/9/6
f 363/4/6 364/4/6 365/4/6
f 365/4/6 364/4/6 366/4/6
f 363/4/6 365/4/6 367/4/6
f 366/4/6 364/4/6 368/4/6
f 363/4/6 367/4/6 369/4/6
f 367/4/6 368/4/6 369/4/6
f 368/4/6 364/4/6 370/4/6
f 369/4/6 368/4/6 370/4/6
f 371/3/6 372/3/6 373/3/6
f 373/3/6 372/3/6 374/3/6
f 371/3/6 373/3/6 375/3/6
f 374/3/6 372/3/6 376/3/6
f 371/3/6 375/3/6 377/3/6
f 375/3/6 376/3/6 377/3/6
f 376/3/6 372/3/6 378/3/6
f 377/3/6 376/3/6 378/3/6
f 379/2/6 380/2/6 381/2/6
f 381/2/6 380/2/6 382/2/6
f 379/2/6 381/2/6 383/2/6
f 382/2/6 380/2/6 384/2/6
f 379/2/6 383/2/6 385/2/6
f 384/2/6 380/2/6 386/2/6
f 379/2/6 385/2/6 387/2/6
f 386/2/6 380/2/6 388/2/6
f 379/2/6 387/2/6 389/2/6
f 387/2/6 388/2/6 389/2/6
f 388/2/6 380/2/6 390/2/6
f 389/2/6 388/2/6 390/2/6
f 391/1/6 392/1/6 393/1/6
f 393/1/6 392/1/6 394/1/6
f 394/1/6 392/1/6 395/1/6
f 395/1/6 392/1/6 396/1/6
f 391/1/6 393/1/6 397/1/6
f 397/1/6 393/1/6 398/1/6
f 396/1/6 392/1/6 399/1/6
f 399/1/6 392/1/6 400/1/6
f 397/7/6 398/7/6 401/7/6
f 401/7/6 398/7/6 402/7/6
f 399/7/6 400/7/6 403/7/6
f 403/7/6 400/7/6 404/7/6
f 401/1/6 402/1/6 405/1/6
f 403/1/6 404/1/6 408/1/6
f 406/1/6 407/1/6 409/1/6
f 407/1/6 408/1/6 409/1/6
f 401/1/6 405/1/6 409/1/6
f 405/1/6 406/1/6 409/1/6
f 408/1/6 404/1/6 410/1/6
f 409/1/6 408/1/6 410/1/6
f 411/1/6 412/1/6 415/1/6
f 412/7/6 413/7/6 416/7/6
f 415/1/6 412/1/6 416/1/6
f 413/1/6 414/1/6 417/1/6
f 416/7/6 413/7/6 417/7/6
f 417/1/6 414/1/6 418/1/6
f 415/7/6 416/7/6 419/7/6
f 416/7/6 417/7/6 419/7/6
f 417/7/6 418/7/6 419/7/6
f 419/7/6 418/7/6 420/7/6
f 420/7/6 418/7/6 421/7/6
f 421/7/6 418/7/6 422/7/6
f 419/1/6 420/1/6 423/1/6
f 420/7/6 421/7/6 424/7/6
f 423/1/6 420/1/6 424/1/6
f 421/1/6 422/1/6 425/1/6
f 424/7/6 421/7/6 425/7/6
f 425/1/6 422/1/6 426/1/6
